<svg xmlns="http://www.w3.org/2000/svg" width="298.0" height="85.7072419063853" viewBox="-4.0 6.0 298.0 85.7072419063853">
  <defs><marker id="arrow" viewBox="-10 -4 10 8" refX="0" refY="0" orient="auto" markerWidth="10" markerHeight="8"><path d="M -10 -4 L 0 0 L -10 4 Z" fill="rgba(0,0,0,1.0)" stroke="rgba(0,0,0,0.0)" stroke-width="1.0"/></marker></defs>
  <g transform="translate(10.0 20.0) rotate(0.0) scale(1.0 1.0)">
<g transform="translate(0.0 18.302714512862188) rotate(0.0) scale(1.0 1.0)">
<circle cx="0" cy="0" r="4" stroke="rgba(255,255,255,1.0)" fill="rgba(70,130,180,1.0)"/>
</g>
<g transform="translate(30.0 32.8205571579327) rotate(0.0) scale(1.0 1.0)">
<circle cx="0" cy="0" r="4" stroke="rgba(255,255,255,1.0)" fill="rgba(70,130,180,1.0)"/>
</g>
<g transform="translate(60.0 57.707241906385306) rotate(0.0) scale(1.0 1.0)">
<circle cx="0" cy="0" r="4" stroke="rgba(255,255,255,1.0)" fill="rgba(70,130,180,1.0)"/>
</g>
<g transform="translate(90.0 0.0) rotate(0.0) scale(1.0 1.0)">
<circle cx="0" cy="0" r="4" stroke="rgba(255,255,255,1.0)" fill="rgba(70,130,180,1.0)"/>
</g>
<g transform="translate(120.0 0.6970172008792588) rotate(0.0) scale(1.0 1.0)">
<circle cx="0" cy="0" r="4" stroke="rgba(255,255,255,1.0)" fill="rgba(70,130,180,1.0)"/>
</g>
<g transform="translate(150.0 44.88009501139206) rotate(0.0) scale(1.0 1.0)">
<circle cx="0" cy="0" r="4" stroke="rgba(255,255,255,1.0)" fill="rgba(70,130,180,1.0)"/>
</g>
<g transform="translate(180.0 11.340401501983877) rotate(0.0) scale(1.0 1.0)">
<circle cx="0" cy="0" r="4" stroke="rgba(255,255,255,1.0)" fill="rgba(70,130,180,1.0)"/>
</g>
<g transform="translate(210.0 31.86640243180493) rotate(0.0) scale(1.0 1.0)">
<circle cx="0" cy="0" r="4" stroke="rgba(255,255,255,1.0)" fill="rgba(70,130,180,1.0)"/>
</g>
<g transform="translate(240.0 39.41375434380784) rotate(0.0) scale(1.0 1.0)">
<circle cx="0" cy="0" r="4" stroke="rgba(255,255,255,1.0)" fill="rgba(70,130,180,1.0)"/>
</g>
<g transform="translate(270.0 29.86044273698765) rotate(0.0) scale(1.0 1.0)">
<circle cx="0" cy="0" r="4" stroke="rgba(255,255,255,1.0)" fill="rgba(70,130,180,1.0)"/>
</g>
</g>
</svg>