<svg xmlns="http://www.w3.org/2000/svg" width="201.15384615384616" height="135.1387685344754" viewBox="-30.0 -45.13876853447539 201.15384615384616 135.1387685344754">
  <defs><marker id="arrow" viewBox="-10 -4 10 8" refX="0" refY="0" orient="auto" markerWidth="10" markerHeight="8"><path d="M -10 -4 L 0 0 L -10 4 Z" fill="rgba(0,0,0,1.0)" stroke="rgba(0,0,0,0.0)" stroke-width="1.0"/></marker></defs>
  <g transform="translate(-10.0 0.0) rotate(0.0) scale(1.0 1.0)">

</g>
<g transform="translate(151.15384615384616 -25.13876853447539) rotate(45.0) scale(1.0 1.0)">

</g>
  <g transform="translate(10.0 20.0) rotate(0.0) scale(1.0 1.0)">

</g>
  
  <g transform="translate(13.846153846153847 52.5) rotate(0.0) scale(1.0 1.0)">
<rect x="-13.846153846153847" y="-17.5" width="27.692307692307693" height="35.0" stroke="rgba(255,255,255,1.0)" fill="rgba(70,130,180,1.0)"/>
</g>
  <g transform="translate(44.61538461538461 35.0) rotate(0.0) scale(1.0 1.0)">
<rect x="-13.846153846153847" y="-35.0" width="27.692307692307693" height="70.0" stroke="rgba(255,255,255,1.0)" fill="rgba(70,130,180,1.0)"/>
</g>
  <g transform="translate(75.38461538461539 44.72222222222222) rotate(0.0) scale(1.0 1.0)">
<rect x="-13.846153846153847" y="-25.27777777777778" width="27.692307692307693" height="50.55555555555556" stroke="rgba(255,255,255,1.0)" fill="rgba(70,130,180,1.0)"/>
</g>
  <g transform="translate(106.15384615384616 58.333333333333336) rotate(0.0) scale(1.0 1.0)">
<rect x="-13.846153846153847" y="-11.666666666666666" width="27.692307692307693" height="23.333333333333332" stroke="rgba(255,255,255,1.0)" fill="rgba(70,130,180,1.0)"/>
</g>
  <g transform="translate(10.0 20.0) rotate(0.0) scale(1.0 1.0)">

</g>
  
  <g transform="translate(13.846153846153847 35.0) rotate(0.0) scale(1.0 1.0)">
<circle cx="0" cy="0" r="5" stroke="rgba(255,255,255,1.0)" fill="rgba(70,130,180,1.0)"/>
</g>
  <g transform="translate(44.61538461538461 0.0) rotate(0.0) scale(1.0 1.0)">
<circle cx="0" cy="0" r="5" stroke="rgba(255,255,255,1.0)" fill="rgba(70,130,180,1.0)"/>
</g>
  <g transform="translate(75.38461538461539 19.444444444444443) rotate(0.0) scale(1.0 1.0)">
<circle cx="0" cy="0" r="5" stroke="rgba(255,255,255,1.0)" fill="rgba(70,130,180,1.0)"/>
</g>
  <g transform="translate(106.15384615384616 46.66666666666667) rotate(0.0) scale(1.0 1.0)">
<circle cx="0" cy="0" r="5" stroke="rgba(255,255,255,1.0)" fill="rgba(70,130,180,1.0)"/>
</g>
</svg>