<svg xmlns="http://www.w3.org/2000/svg" width="298.0" height="89.62287668012696" viewBox="-4.0 6.0 298.0 89.62287668012696">
  <defs><marker id="arrow" viewBox="-10 -4 10 8" refX="0" refY="0" orient="auto" markerWidth="10" markerHeight="8"><path d="M -10 -4 L 0 0 L -10 4 Z" fill="rgba(0,0,0,1.0)" stroke="rgba(0,0,0,0.0)" stroke-width="1.0"/></marker></defs>
  <g transform="translate(10.0 20.0) rotate(0.0) scale(1.0 1.0)">
<g transform="translate(0.0 61.622876680126964) rotate(0.0) scale(1.0 1.0)">
<circle cx="0" cy="0" r="4" stroke="rgba(255,255,255,1.0)" fill="rgba(70,130,180,1.0)"/>
</g>
<g transform="translate(30.0 8.539587977916774) rotate(0.0) scale(1.0 1.0)">
<circle cx="0" cy="0" r="4" stroke="rgba(255,255,255,1.0)" fill="rgba(70,130,180,1.0)"/>
</g>
<g transform="translate(60.0 47.22800727536362) rotate(0.0) scale(1.0 1.0)">
<circle cx="0" cy="0" r="4" stroke="rgba(255,255,255,1.0)" fill="rgba(70,130,180,1.0)"/>
</g>
<g transform="translate(90.0 41.17989766446773) rotate(0.0) scale(1.0 1.0)">
<circle cx="0" cy="0" r="4" stroke="rgba(255,255,255,1.0)" fill="rgba(70,130,180,1.0)"/>
</g>
<g transform="translate(120.0 38.09765798520209) rotate(0.0) scale(1.0 1.0)">
<circle cx="0" cy="0" r="4" stroke="rgba(255,255,255,1.0)" fill="rgba(70,130,180,1.0)"/>
</g>
<g transform="translate(150.0 48.72739577764621) rotate(0.0) scale(1.0 1.0)">
<circle cx="0" cy="0" r="4" stroke="rgba(255,255,255,1.0)" fill="rgba(70,130,180,1.0)"/>
</g>
<g transform="translate(180.0 36.5543283696493) rotate(0.0) scale(1.0 1.0)">
<circle cx="0" cy="0" r="4" stroke="rgba(255,255,255,1.0)" fill="rgba(70,130,180,1.0)"/>
</g>
<g transform="translate(210.0 17.46878467560918) rotate(0.0) scale(1.0 1.0)">
<circle cx="0" cy="0" r="4" stroke="rgba(255,255,255,1.0)" fill="rgba(70,130,180,1.0)"/>
</g>
<g transform="translate(240.0 8.530823318404074) rotate(0.0) scale(1.0 1.0)">
<circle cx="0" cy="0" r="4" stroke="rgba(255,255,255,1.0)" fill="rgba(70,130,180,1.0)"/>
</g>
<g transform="translate(270.0 0.0) rotate(0.0) scale(1.0 1.0)">
<circle cx="0" cy="0" r="4" stroke="rgba(255,255,255,1.0)" fill="rgba(70,130,180,1.0)"/>
</g>
</g>
</svg>