<svg xmlns="http://www.w3.org/2000/svg" width="280.0" height="120.0" viewBox="-50.0 -60.0 280.0 120.0">
  <defs>
    <marker id="arrowhead" markerWidth="10" markerHeight="7" refX="9" refY="3.5" orient="auto">
                <polygon points="0 0, 10 3.5, 0 7" fill="black"/>
            </marker>
  </defs>
  <g transform="translate(0.0 0.0) rotate(0.0) scale(1.0)">
<g transform="translate(20.0 0.0) rotate(0.0) scale(1.0)">
<circle cx="0" cy="0" r="20" stroke="black" fill="none"/>
</g>
<g transform="translate(110.0 -30.0) rotate(0.0) scale(1.0)">
<circle cx="0" cy="0" r="20" stroke="black" fill="none"/>
</g>
<g transform="translate(110.0 30.0) rotate(0.0) scale(1.0)">
<circle cx="0" cy="0" r="20" stroke="black" fill="none"/>
</g>
<g transform="translate(200.0 0.0) rotate(0.0) scale(1.0)">
<circle cx="0" cy="0" r="20" stroke="black" fill="none"/>
</g>
</g>
  <g transform="translate(0.0 0.0) rotate(0.0) scale(1.0)">
<line x1="38.973665961010276" y1="-6.324555320336759" x2="91.02633403898972" y2="-23.67544467966324" stroke="black" stroke-width="1.0" marker-end="url(#arrowhead)"/>
</g>
  <g transform="translate(0.0 0.0) rotate(0.0) scale(1.0)">
<line x1="110.0" y1="-10.0" x2="110.0" y2="10.0" stroke="black" stroke-width="1.0" marker-end="url(#arrowhead)"/>
</g>
  <g transform="translate(0.0 0.0) rotate(0.0) scale(1.0)">
<line x1="91.02633403898972" y1="23.67544467966324" x2="38.973665961010276" y2="6.324555320336759" stroke="black" stroke-width="1.0" marker-end="url(#arrowhead)"/>
</g>
  <g transform="translate(0.0 0.0) rotate(0.0) scale(1.0)">
<line x1="128.97366596101028" y1="23.67544467966324" x2="181.02633403898972" y2="6.324555320336759" stroke="black" stroke-width="1.0" marker-end="url(#arrowhead)"/>
</g>
  <g transform="translate(0.0 0.0) rotate(0.0) scale(1.0)">
<line x1="-40.0" y1="0.0" x2="0.0" y2="0.0" stroke="black" stroke-width="1.0" marker-end="url(#arrowhead)"/>
</g>
</svg>