<svg xmlns="http://www.w3.org/2000/svg" width="1108.0" height="288.0" viewBox="-40.0 -40.0 1108.0 288.0">
  <defs><marker id="arrow" viewBox="-10 -4 10 8" refX="0" refY="0" orient="auto" markerWidth="10" markerHeight="8"><path d="M -10 -4 L 0 0 L -10 4 Z" fill="rgba(0,0,0,1.0)" stroke="rgba(0,0,0,0.0)" stroke-width="1.0"/></marker></defs>
  <g transform="translate(20.0 20.0) rotate(0.0) scale(1.0 1.0)">
<rect x="-20.0" y="-20.0" width="40" height="40" stroke="#1565c0" fill="#e3f2fd"/>
<text x="0" y="0" font-family="monospace" font-size="14" fill="rgba(0,0,0,1.0)" text-anchor="middle" dominant-baseline="middle">1</text>
</g>
<g transform="translate(62.0 20.0) rotate(0.0) scale(1.0 1.0)">
<rect x="-20.0" y="-20.0" width="40" height="40" stroke="#1565c0" fill="#e3f2fd"/>
<text x="0" y="0" font-family="monospace" font-size="14" fill="rgba(0,0,0,1.0)" text-anchor="middle" dominant-baseline="middle">0</text>
</g>
<g transform="translate(104.0 20.0) rotate(0.0) scale(1.0 1.0)">
<rect x="-20.0" y="-20.0" width="40" height="40" stroke="#1565c0" fill="#e3f2fd"/>
<text x="0" y="0" font-family="monospace" font-size="14" fill="rgba(0,0,0,1.0)" text-anchor="middle" dominant-baseline="middle">0</text>
</g>
<g transform="translate(146.0 20.0) rotate(0.0) scale(1.0 1.0)">
<rect x="-20.0" y="-20.0" width="40" height="40" stroke="black" fill="white"/>
<text x="0" y="0" font-family="monospace" font-size="14" fill="rgba(0,0,0,1.0)" text-anchor="middle" dominant-baseline="middle">0</text>
</g>
<g transform="translate(188.0 20.0) rotate(0.0) scale(1.0 1.0)">
<rect x="-20.0" y="-20.0" width="40" height="40" stroke="black" fill="white"/>
<text x="0" y="0" font-family="monospace" font-size="14" fill="rgba(0,0,0,1.0)" text-anchor="middle" dominant-baseline="middle">0</text>
</g>
<g transform="translate(20.0 62.0) rotate(0.0) scale(1.0 1.0)">
<rect x="-20.0" y="-20.0" width="40" height="40" stroke="#1565c0" fill="#e3f2fd"/>
<text x="0" y="0" font-family="monospace" font-size="14" fill="rgba(0,0,0,1.0)" text-anchor="middle" dominant-baseline="middle">0</text>
</g>
<g transform="translate(62.0 62.0) rotate(0.0) scale(1.0 1.0)">
<rect x="-20.0" y="-20.0" width="40" height="40" stroke="#1565c0" fill="#e3f2fd"/>
<text x="0" y="0" font-family="monospace" font-size="14" fill="rgba(0,0,0,1.0)" text-anchor="middle" dominant-baseline="middle">1</text>
</g>
<g transform="translate(104.0 62.0) rotate(0.0) scale(1.0 1.0)">
<rect x="-20.0" y="-20.0" width="40" height="40" stroke="#1565c0" fill="#e3f2fd"/>
<text x="0" y="0" font-family="monospace" font-size="14" fill="rgba(0,0,0,1.0)" text-anchor="middle" dominant-baseline="middle">0</text>
</g>
<g transform="translate(146.0 62.0) rotate(0.0) scale(1.0 1.0)">
<rect x="-20.0" y="-20.0" width="40" height="40" stroke="black" fill="white"/>
<text x="0" y="0" font-family="monospace" font-size="14" fill="rgba(0,0,0,1.0)" text-anchor="middle" dominant-baseline="middle">0</text>
</g>
<g transform="translate(188.0 62.0) rotate(0.0) scale(1.0 1.0)">
<rect x="-20.0" y="-20.0" width="40" height="40" stroke="black" fill="white"/>
<text x="0" y="0" font-family="monospace" font-size="14" fill="rgba(0,0,0,1.0)" text-anchor="middle" dominant-baseline="middle">0</text>
</g>
<g transform="translate(20.0 104.0) rotate(0.0) scale(1.0 1.0)">
<rect x="-20.0" y="-20.0" width="40" height="40" stroke="#1565c0" fill="#e3f2fd"/>
<text x="0" y="0" font-family="monospace" font-size="14" fill="rgba(0,0,0,1.0)" text-anchor="middle" dominant-baseline="middle">0</text>
</g>
<g transform="translate(62.0 104.0) rotate(0.0) scale(1.0 1.0)">
<rect x="-20.0" y="-20.0" width="40" height="40" stroke="#1565c0" fill="#e3f2fd"/>
<text x="0" y="0" font-family="monospace" font-size="14" fill="rgba(0,0,0,1.0)" text-anchor="middle" dominant-baseline="middle">0</text>
</g>
<g transform="translate(104.0 104.0) rotate(0.0) scale(1.0 1.0)">
<rect x="-20.0" y="-20.0" width="40" height="40" stroke="#1565c0" fill="#e3f2fd"/>
<text x="0" y="0" font-family="monospace" font-size="14" fill="rgba(0,0,0,1.0)" text-anchor="middle" dominant-baseline="middle">1</text>
</g>
<g transform="translate(146.0 104.0) rotate(0.0) scale(1.0 1.0)">
<rect x="-20.0" y="-20.0" width="40" height="40" stroke="black" fill="white"/>
<text x="0" y="0" font-family="monospace" font-size="14" fill="rgba(0,0,0,1.0)" text-anchor="middle" dominant-baseline="middle">0</text>
</g>
<g transform="translate(188.0 104.0) rotate(0.0) scale(1.0 1.0)">
<rect x="-20.0" y="-20.0" width="40" height="40" stroke="black" fill="white"/>
<text x="0" y="0" font-family="monospace" font-size="14" fill="rgba(0,0,0,1.0)" text-anchor="middle" dominant-baseline="middle">0</text>
</g>
<g transform="translate(20.0 146.0) rotate(0.0) scale(1.0 1.0)">
<rect x="-20.0" y="-20.0" width="40" height="40" stroke="black" fill="white"/>
<text x="0" y="0" font-family="monospace" font-size="14" fill="rgba(0,0,0,1.0)" text-anchor="middle" dominant-baseline="middle">0</text>
</g>
<g transform="translate(62.0 146.0) rotate(0.0) scale(1.0 1.0)">
<rect x="-20.0" y="-20.0" width="40" height="40" stroke="black" fill="white"/>
<text x="0" y="0" font-family="monospace" font-size="14" fill="rgba(0,0,0,1.0)" text-anchor="middle" dominant-baseline="middle">0</text>
</g>
<g transform="translate(104.0 146.0) rotate(0.0) scale(1.0 1.0)">
<rect x="-20.0" y="-20.0" width="40" height="40" stroke="black" fill="white"/>
<text x="0" y="0" font-family="monospace" font-size="14" fill="rgba(0,0,0,1.0)" text-anchor="middle" dominant-baseline="middle">0</text>
</g>
<g transform="translate(146.0 146.0) rotate(0.0) scale(1.0 1.0)">
<rect x="-20.0" y="-20.0" width="40" height="40" stroke="black" fill="white"/>
<text x="0" y="0" font-family="monospace" font-size="14" fill="rgba(0,0,0,1.0)" text-anchor="middle" dominant-baseline="middle">1</text>
</g>
<g transform="translate(188.0 146.0) rotate(0.0) scale(1.0 1.0)">
<rect x="-20.0" y="-20.0" width="40" height="40" stroke="black" fill="white"/>
<text x="0" y="0" font-family="monospace" font-size="14" fill="rgba(0,0,0,1.0)" text-anchor="middle" dominant-baseline="middle">0</text>
</g>
<g transform="translate(20.0 188.0) rotate(0.0) scale(1.0 1.0)">
<rect x="-20.0" y="-20.0" width="40" height="40" stroke="black" fill="white"/>
<text x="0" y="0" font-family="monospace" font-size="14" fill="rgba(0,0,0,1.0)" text-anchor="middle" dominant-baseline="middle">0</text>
</g>
<g transform="translate(62.0 188.0) rotate(0.0) scale(1.0 1.0)">
<rect x="-20.0" y="-20.0" width="40" height="40" stroke="black" fill="white"/>
<text x="0" y="0" font-family="monospace" font-size="14" fill="rgba(0,0,0,1.0)" text-anchor="middle" dominant-baseline="middle">0</text>
</g>
<g transform="translate(104.0 188.0) rotate(0.0) scale(1.0 1.0)">
<rect x="-20.0" y="-20.0" width="40" height="40" stroke="black" fill="white"/>
<text x="0" y="0" font-family="monospace" font-size="14" fill="rgba(0,0,0,1.0)" text-anchor="middle" dominant-baseline="middle">0</text>
</g>
<g transform="translate(146.0 188.0) rotate(0.0) scale(1.0 1.0)">
<rect x="-20.0" y="-20.0" width="40" height="40" stroke="black" fill="white"/>
<text x="0" y="0" font-family="monospace" font-size="14" fill="rgba(0,0,0,1.0)" text-anchor="middle" dominant-baseline="middle">0</text>
</g>
<g transform="translate(188.0 188.0) rotate(0.0) scale(1.0 1.0)">
<rect x="-20.0" y="-20.0" width="40" height="40" stroke="black" fill="white"/>
<text x="0" y="0" font-family="monospace" font-size="14" fill="rgba(0,0,0,1.0)" text-anchor="middle" dominant-baseline="middle">1</text>
</g>
<g transform="translate(280.8 104.0) rotate(0.0) scale(1.0 1.0)">
<text x="0" y="0" font-family="sans-serif" font-size="16" fill="rgba(0,0,0,1.0)" text-anchor="middle" dominant-baseline="middle">Input (5x5)</text>
</g>
<g transform="translate(353.6 104.0) rotate(0.0) scale(1.0 1.0)">

</g>
<g transform="translate(382.6 104.0) rotate(0.0) scale(1.0 1.0)">
<text x="0" y="0" font-family="sans-serif" font-size="30" fill="rgba(0,0,0,1.0)" text-anchor="middle" dominant-baseline="middle">∗</text>
</g>
<g transform="translate(411.6 42.0) rotate(0.0) scale(1.0 1.0)">
<g transform="translate(20.0 20.0) rotate(0.0) scale(1.0 1.0)">
<rect x="-20.0" y="-20.0" width="40" height="40" stroke="#1565c0" fill="#e3f2fd"/>
<text x="0" y="0" font-family="monospace" font-size="14" fill="rgba(0,0,0,1.0)" text-anchor="middle" dominant-baseline="middle">1</text>
</g>
<g transform="translate(62.0 20.0) rotate(0.0) scale(1.0 1.0)">
<rect x="-20.0" y="-20.0" width="40" height="40" stroke="#1565c0" fill="#e3f2fd"/>
<text x="0" y="0" font-family="monospace" font-size="14" fill="rgba(0,0,0,1.0)" text-anchor="middle" dominant-baseline="middle">0</text>
</g>
<g transform="translate(104.0 20.0) rotate(0.0) scale(1.0 1.0)">
<rect x="-20.0" y="-20.0" width="40" height="40" stroke="#1565c0" fill="#e3f2fd"/>
<text x="0" y="0" font-family="monospace" font-size="14" fill="rgba(0,0,0,1.0)" text-anchor="middle" dominant-baseline="middle">1</text>
</g>
<g transform="translate(20.0 62.0) rotate(0.0) scale(1.0 1.0)">
<rect x="-20.0" y="-20.0" width="40" height="40" stroke="#1565c0" fill="#e3f2fd"/>
<text x="0" y="0" font-family="monospace" font-size="14" fill="rgba(0,0,0,1.0)" text-anchor="middle" dominant-baseline="middle">0</text>
</g>
<g transform="translate(62.0 62.0) rotate(0.0) scale(1.0 1.0)">
<rect x="-20.0" y="-20.0" width="40" height="40" stroke="#1565c0" fill="#e3f2fd"/>
<text x="0" y="0" font-family="monospace" font-size="14" fill="rgba(0,0,0,1.0)" text-anchor="middle" dominant-baseline="middle">1</text>
</g>
<g transform="translate(104.0 62.0) rotate(0.0) scale(1.0 1.0)">
<rect x="-20.0" y="-20.0" width="40" height="40" stroke="#1565c0" fill="#e3f2fd"/>
<text x="0" y="0" font-family="monospace" font-size="14" fill="rgba(0,0,0,1.0)" text-anchor="middle" dominant-baseline="middle">0</text>
</g>
<g transform="translate(20.0 104.0) rotate(0.0) scale(1.0 1.0)">
<rect x="-20.0" y="-20.0" width="40" height="40" stroke="#1565c0" fill="#e3f2fd"/>
<text x="0" y="0" font-family="monospace" font-size="14" fill="rgba(0,0,0,1.0)" text-anchor="middle" dominant-baseline="middle">1</text>
</g>
<g transform="translate(62.0 104.0) rotate(0.0) scale(1.0 1.0)">
<rect x="-20.0" y="-20.0" width="40" height="40" stroke="#1565c0" fill="#e3f2fd"/>
<text x="0" y="0" font-family="monospace" font-size="14" fill="rgba(0,0,0,1.0)" text-anchor="middle" dominant-baseline="middle">0</text>
</g>
<g transform="translate(104.0 104.0) rotate(0.0) scale(1.0 1.0)">
<rect x="-20.0" y="-20.0" width="40" height="40" stroke="#1565c0" fill="#e3f2fd"/>
<text x="0" y="0" font-family="monospace" font-size="14" fill="rgba(0,0,0,1.0)" text-anchor="middle" dominant-baseline="middle">1</text>
</g>
</g>
<g transform="translate(613.2 104.0) rotate(0.0) scale(1.0 1.0)">
<text x="0" y="0" font-family="sans-serif" font-size="16" fill="rgba(0,0,0,1.0)" text-anchor="middle" dominant-baseline="middle">Kernel (3x3)</text>
</g>
<g transform="translate(690.8 104.0) rotate(0.0) scale(1.0 1.0)">

</g>
<g transform="translate(719.8 104.0) rotate(0.0) scale(1.0 1.0)">
<text x="0" y="0" font-family="sans-serif" font-size="30" fill="rgba(0,0,0,1.0)" text-anchor="middle" dominant-baseline="middle">=</text>
</g>
<g transform="translate(748.8 42.0) rotate(0.0) scale(1.0 1.0)">
<g transform="translate(20.0 20.0) rotate(0.0) scale(1.0 1.0)">
<rect x="-20.0" y="-20.0" width="40" height="40" stroke="#1565c0" fill="#e3f2fd"/>
<text x="0" y="0" font-family="monospace" font-size="14" fill="rgba(0,0,0,1.0)" text-anchor="middle" dominant-baseline="middle">2</text>
</g>
<g transform="translate(62.0 20.0) rotate(0.0) scale(1.0 1.0)">
<rect x="-20.0" y="-20.0" width="40" height="40" stroke="black" fill="white"/>
<text x="0" y="0" font-family="monospace" font-size="14" fill="rgba(0,0,0,1.0)" text-anchor="middle" dominant-baseline="middle">1</text>
</g>
<g transform="translate(104.0 20.0) rotate(0.0) scale(1.0 1.0)">
<rect x="-20.0" y="-20.0" width="40" height="40" stroke="black" fill="white"/>
<text x="0" y="0" font-family="monospace" font-size="14" fill="rgba(0,0,0,1.0)" text-anchor="middle" dominant-baseline="middle">2</text>
</g>
<g transform="translate(20.0 62.0) rotate(0.0) scale(1.0 1.0)">
<rect x="-20.0" y="-20.0" width="40" height="40" stroke="black" fill="white"/>
<text x="0" y="0" font-family="monospace" font-size="14" fill="rgba(0,0,0,1.0)" text-anchor="middle" dominant-baseline="middle">1</text>
</g>
<g transform="translate(62.0 62.0) rotate(0.0) scale(1.0 1.0)">
<rect x="-20.0" y="-20.0" width="40" height="40" stroke="black" fill="white"/>
<text x="0" y="0" font-family="monospace" font-size="14" fill="rgba(0,0,0,1.0)" text-anchor="middle" dominant-baseline="middle">3</text>
</g>
<g transform="translate(104.0 62.0) rotate(0.0) scale(1.0 1.0)">
<rect x="-20.0" y="-20.0" width="40" height="40" stroke="black" fill="white"/>
<text x="0" y="0" font-family="monospace" font-size="14" fill="rgba(0,0,0,1.0)" text-anchor="middle" dominant-baseline="middle">1</text>
</g>
<g transform="translate(20.0 104.0) rotate(0.0) scale(1.0 1.0)">
<rect x="-20.0" y="-20.0" width="40" height="40" stroke="black" fill="white"/>
<text x="0" y="0" font-family="monospace" font-size="14" fill="rgba(0,0,0,1.0)" text-anchor="middle" dominant-baseline="middle">2</text>
</g>
<g transform="translate(62.0 104.0) rotate(0.0) scale(1.0 1.0)">
<rect x="-20.0" y="-20.0" width="40" height="40" stroke="black" fill="white"/>
<text x="0" y="0" font-family="monospace" font-size="14" fill="rgba(0,0,0,1.0)" text-anchor="middle" dominant-baseline="middle">1</text>
</g>
<g transform="translate(104.0 104.0) rotate(0.0) scale(1.0 1.0)">
<rect x="-20.0" y="-20.0" width="40" height="40" stroke="black" fill="white"/>
<text x="0" y="0" font-family="monospace" font-size="14" fill="rgba(0,0,0,1.0)" text-anchor="middle" dominant-baseline="middle">2</text>
</g>
</g>
<g transform="translate(950.4 104.0) rotate(0.0) scale(1.0 1.0)">
<text x="0" y="0" font-family="sans-serif" font-size="16" fill="rgba(0,0,0,1.0)" text-anchor="middle" dominant-baseline="middle">Result (3x3)</text>
</g>
<g transform="translate(1028.0 104.0) rotate(0.0) scale(1.0 1.0)">

</g>
</svg>