<svg xmlns="http://www.w3.org/2000/svg" width="360.0" height="150.0" viewBox="-20.0 -70.0 360.0 150.0">
  <defs><marker id="arrow" viewBox="-10 -4 10 8" refX="0" refY="0" orient="auto" markerWidth="10" markerHeight="8"><path d="M -10 -4 L 0 0 L -10 4 Z" fill="rgba(0,0,0,1.0)" stroke="rgba(0,0,0,0.0)" stroke-width="1.0"/></marker></defs>
  <g transform="translate(20.0 0.0) rotate(0.0) scale(1.0 1.0)">
<rect x="-20.0" y="-20.0" width="40" height="40" stroke="black" fill="white"/>
</g>
<g transform="translate(60.0 0.0) rotate(0.0) scale(1.0 1.0)">
<rect x="-20.0" y="-20.0" width="40" height="40" stroke="black" fill="white"/>
</g>
<g transform="translate(100.0 0.0) rotate(0.0) scale(1.0 1.0)">
<rect x="-20.0" y="-20.0" width="40" height="40" stroke="black" fill="white"/>
</g>
<g transform="translate(140.0 0.0) rotate(0.0) scale(1.0 1.0)">
<rect x="-20.0" y="-20.0" width="40" height="40" stroke="black" fill="white"/>
</g>
<g transform="translate(180.0 0.0) rotate(0.0) scale(1.0 1.0)">
<rect x="-20.0" y="-20.0" width="40" height="40" stroke="black" fill="white"/>
</g>
<g transform="translate(220.0 0.0) rotate(0.0) scale(1.0 1.0)">
<rect x="-20.0" y="-20.0" width="40" height="40" stroke="black" fill="white"/>
</g>
<g transform="translate(260.0 0.0) rotate(0.0) scale(1.0 1.0)">
<rect x="-20.0" y="-20.0" width="40" height="40" stroke="black" fill="white"/>
</g>
<g transform="translate(300.0 0.0) rotate(0.0) scale(1.0 1.0)">
<rect x="-20.0" y="-20.0" width="40" height="40" stroke="red" fill="#ffebeb"/>
</g>
  <path d="M 100.0 60.0 L 100.0 25.0" fill="rgba(0,0,0,0.0)" stroke="rgba(0,0,0,1.0)" stroke-width="1.0" marker-end="url(#arrow)"/>
  <path d="M 220.0 60.0 L 220.0 25.0" fill="rgba(0,0,0,0.0)" stroke="rgba(0,0,0,1.0)" stroke-width="1.0" marker-end="url(#arrow)"/>
  <path d="M 320.0 -50.0 L 300.0 -25.0" fill="rgba(0,0,0,0.0)" stroke="rgba(0,0,0,1.0)" stroke-width="1.0" marker-end="url(#arrow)"/>
</svg>