<svg xmlns="http://www.w3.org/2000/svg" width="360.0" height="150.0" viewBox="-20.0 -50.0 360.0 150.0">
  <defs><marker id="arrow" viewBox="-10 -4 10 8" refX="0" refY="0" orient="auto" markerWidth="10" markerHeight="8"><g transform="translate(0.0 0.0) rotate(0.0) scale(1.0)">
<path d="M -10 -4 L 0 0 L -10 4 Z" fill="black" stroke="none" stroke-width="1"/>
</g></marker></defs>
  <g transform="translate(0.0 0.0) rotate(0.0) scale(1.0)">
<g transform="translate(0.0 0.0) rotate(0.0) scale(1.0)">
<rect x="0" y="0" width="40" height="40" stroke="black" fill="white"/>
</g>
<g transform="translate(40.0 0.0) rotate(0.0) scale(1.0)">
<rect x="0" y="0" width="40" height="40" stroke="black" fill="white"/>
</g>
<g transform="translate(80.0 0.0) rotate(0.0) scale(1.0)">
<rect x="0" y="0" width="40" height="40" stroke="black" fill="white"/>
</g>
<g transform="translate(120.0 0.0) rotate(0.0) scale(1.0)">
<rect x="0" y="0" width="40" height="40" stroke="black" fill="white"/>
</g>
<g transform="translate(160.0 0.0) rotate(0.0) scale(1.0)">
<rect x="0" y="0" width="40" height="40" stroke="black" fill="white"/>
</g>
<g transform="translate(200.0 0.0) rotate(0.0) scale(1.0)">
<rect x="0" y="0" width="40" height="40" stroke="black" fill="white"/>
</g>
<g transform="translate(240.0 0.0) rotate(0.0) scale(1.0)">
<rect x="0" y="0" width="40" height="40" stroke="black" fill="white"/>
</g>
<g transform="translate(280.0 0.0) rotate(0.0) scale(1.0)">
<rect x="0" y="0" width="40" height="40" stroke="red" fill="#ffebeb"/>
</g>
</g>
  <g transform="translate(0.0 0.0) rotate(0.0) scale(1.0)">
<path d="M 100.0 80.0 L 100.0 45.0" fill="transparent" stroke="black" stroke-width="1.0" marker-end="url(#arrow)"/>
</g>
  <g transform="translate(0.0 0.0) rotate(0.0) scale(1.0)">
<path d="M 220.0 80.0 L 220.0 45.0" fill="transparent" stroke="black" stroke-width="1.0" marker-end="url(#arrow)"/>
</g>
  <g transform="translate(0.0 0.0) rotate(0.0) scale(1.0)">
<path d="M 320.0 -30.0 L 300.0 -5.0" fill="transparent" stroke="black" stroke-width="1.0" marker-end="url(#arrow)"/>
</g>
</svg>