<svg xmlns="http://www.w3.org/2000/svg" width="280.0" height="120.0" viewBox="-50.0 -60.0 280.0 120.0">
  <defs><marker id="arrow" viewBox="-10 -4 10 8" refX="0" refY="0" orient="auto" markerWidth="10" markerHeight="8"><path d="M -10 -4 L 0 0 L -10 4 Z" fill="rgba(0,0,0,1.0)" stroke="rgba(0,0,0,0.0)" stroke-width="1.0"/></marker></defs>
  <g transform="translate(20.0 0.0) rotate(0.0) scale(1.0 1.0)">
<circle cx="0" cy="0" r="20" stroke="rgba(0,0,0,1.0)" fill="rgba(0,0,0,0.0)"/>
</g>
<g transform="translate(110.0 -30.0) rotate(0.0) scale(1.0 1.0)">
<circle cx="0" cy="0" r="20" stroke="rgba(0,0,0,1.0)" fill="rgba(0,0,0,0.0)"/>
</g>
<g transform="translate(110.0 30.0) rotate(0.0) scale(1.0 1.0)">
<circle cx="0" cy="0" r="20" stroke="rgba(0,0,0,1.0)" fill="rgba(0,0,0,0.0)"/>
</g>
<g transform="translate(200.0 0.0) rotate(0.0) scale(1.0 1.0)">
<circle cx="0" cy="0" r="20" stroke="rgba(0,0,0,1.0)" fill="rgba(0,0,0,0.0)"/>
</g>
  <path d="M 38.973665961010276 -6.324555320336759 L 91.02633403898972 -23.67544467966324" fill="rgba(0,0,0,0.0)" stroke="rgba(0,0,0,1.0)" stroke-width="1.0" marker-end="url(#arrow)"/>
  <path d="M 110.0 -10.0 L 110.0 10.0" fill="rgba(0,0,0,0.0)" stroke="rgba(0,0,0,1.0)" stroke-width="1.0" marker-end="url(#arrow)"/>
  <path d="M 91.02633403898972 23.67544467966324 L 38.973665961010276 6.324555320336759" fill="rgba(0,0,0,0.0)" stroke="rgba(0,0,0,1.0)" stroke-width="1.0" marker-end="url(#arrow)"/>
  <path d="M 128.97366596101028 23.67544467966324 L 181.02633403898972 6.324555320336759" fill="rgba(0,0,0,0.0)" stroke="rgba(0,0,0,1.0)" stroke-width="1.0" marker-end="url(#arrow)"/>
  <path d="M -40.0 0.0 L 0.0 0.0" fill="rgba(0,0,0,0.0)" stroke="rgba(0,0,0,1.0)" stroke-width="1.0" marker-end="url(#arrow)"/>
</svg>