<svg xmlns="http://www.w3.org/2000/svg" width="652.0" height="314.0" viewBox="-40.0 -66.0 652.0 314.0">
  <defs><marker id="arrow" viewBox="-10 -4 10 8" refX="0" refY="0" orient="auto" markerWidth="10" markerHeight="8"><g transform="translate(0.0 0.0) rotate(0.0) scale(1.0 1.0)">
<path d="M -10 -4 L 0 0 L -10 4 Z" fill="black" stroke="none" stroke-width="1"/>
</g></marker></defs>
  <g transform="translate(0.0 0.0) rotate(0.0) scale(1.0 1.0)">
<g transform="translate(0.0 0.0) rotate(0.0) scale(1.0 1.0)">
<g transform="translate(0.0 0.0) rotate(0.0) scale(1.0 1.0)">
<g transform="translate(20.0 20.0) rotate(0.0) scale(1.0 1.0)">
<g transform="translate(0.0 0.0) rotate(0.0) scale(1.0 1.0)">
<rect x="-20.0" y="-20.0" width="40" height="40" stroke="#1565c0" fill="#e3f2fd"/>
</g>
<g transform="translate(0.0 0.0) rotate(0.0) scale(1.0 1.0)">
<text x="0" y="0" font-family="monospace" font-size="14" fill="black" text-anchor="middle" dominant-baseline="middle">1</text>
</g>
</g>
<g transform="translate(62.0 20.0) rotate(0.0) scale(1.0 1.0)">
<g transform="translate(0.0 0.0) rotate(0.0) scale(1.0 1.0)">
<rect x="-20.0" y="-20.0" width="40" height="40" stroke="#1565c0" fill="#e3f2fd"/>
</g>
<g transform="translate(0.0 0.0) rotate(0.0) scale(1.0 1.0)">
<text x="0" y="0" font-family="monospace" font-size="14" fill="black" text-anchor="middle" dominant-baseline="middle">0</text>
</g>
</g>
<g transform="translate(104.0 20.0) rotate(0.0) scale(1.0 1.0)">
<g transform="translate(0.0 0.0) rotate(0.0) scale(1.0 1.0)">
<rect x="-20.0" y="-20.0" width="40" height="40" stroke="#1565c0" fill="#e3f2fd"/>
</g>
<g transform="translate(0.0 0.0) rotate(0.0) scale(1.0 1.0)">
<text x="0" y="0" font-family="monospace" font-size="14" fill="black" text-anchor="middle" dominant-baseline="middle">0</text>
</g>
</g>
<g transform="translate(146.0 20.0) rotate(0.0) scale(1.0 1.0)">
<g transform="translate(0.0 0.0) rotate(0.0) scale(1.0 1.0)">
<rect x="-20.0" y="-20.0" width="40" height="40" stroke="black" fill="white"/>
</g>
<g transform="translate(0.0 0.0) rotate(0.0) scale(1.0 1.0)">
<text x="0" y="0" font-family="monospace" font-size="14" fill="black" text-anchor="middle" dominant-baseline="middle">0</text>
</g>
</g>
<g transform="translate(188.0 20.0) rotate(0.0) scale(1.0 1.0)">
<g transform="translate(0.0 0.0) rotate(0.0) scale(1.0 1.0)">
<rect x="-20.0" y="-20.0" width="40" height="40" stroke="black" fill="white"/>
</g>
<g transform="translate(0.0 0.0) rotate(0.0) scale(1.0 1.0)">
<text x="0" y="0" font-family="monospace" font-size="14" fill="black" text-anchor="middle" dominant-baseline="middle">0</text>
</g>
</g>
<g transform="translate(20.0 62.0) rotate(0.0) scale(1.0 1.0)">
<g transform="translate(0.0 0.0) rotate(0.0) scale(1.0 1.0)">
<rect x="-20.0" y="-20.0" width="40" height="40" stroke="#1565c0" fill="#e3f2fd"/>
</g>
<g transform="translate(0.0 0.0) rotate(0.0) scale(1.0 1.0)">
<text x="0" y="0" font-family="monospace" font-size="14" fill="black" text-anchor="middle" dominant-baseline="middle">0</text>
</g>
</g>
<g transform="translate(62.0 62.0) rotate(0.0) scale(1.0 1.0)">
<g transform="translate(0.0 0.0) rotate(0.0) scale(1.0 1.0)">
<rect x="-20.0" y="-20.0" width="40" height="40" stroke="#1565c0" fill="#e3f2fd"/>
</g>
<g transform="translate(0.0 0.0) rotate(0.0) scale(1.0 1.0)">
<text x="0" y="0" font-family="monospace" font-size="14" fill="black" text-anchor="middle" dominant-baseline="middle">1</text>
</g>
</g>
<g transform="translate(104.0 62.0) rotate(0.0) scale(1.0 1.0)">
<g transform="translate(0.0 0.0) rotate(0.0) scale(1.0 1.0)">
<rect x="-20.0" y="-20.0" width="40" height="40" stroke="#1565c0" fill="#e3f2fd"/>
</g>
<g transform="translate(0.0 0.0) rotate(0.0) scale(1.0 1.0)">
<text x="0" y="0" font-family="monospace" font-size="14" fill="black" text-anchor="middle" dominant-baseline="middle">0</text>
</g>
</g>
<g transform="translate(146.0 62.0) rotate(0.0) scale(1.0 1.0)">
<g transform="translate(0.0 0.0) rotate(0.0) scale(1.0 1.0)">
<rect x="-20.0" y="-20.0" width="40" height="40" stroke="black" fill="white"/>
</g>
<g transform="translate(0.0 0.0) rotate(0.0) scale(1.0 1.0)">
<text x="0" y="0" font-family="monospace" font-size="14" fill="black" text-anchor="middle" dominant-baseline="middle">0</text>
</g>
</g>
<g transform="translate(188.0 62.0) rotate(0.0) scale(1.0 1.0)">
<g transform="translate(0.0 0.0) rotate(0.0) scale(1.0 1.0)">
<rect x="-20.0" y="-20.0" width="40" height="40" stroke="black" fill="white"/>
</g>
<g transform="translate(0.0 0.0) rotate(0.0) scale(1.0 1.0)">
<text x="0" y="0" font-family="monospace" font-size="14" fill="black" text-anchor="middle" dominant-baseline="middle">0</text>
</g>
</g>
<g transform="translate(20.0 104.0) rotate(0.0) scale(1.0 1.0)">
<g transform="translate(0.0 0.0) rotate(0.0) scale(1.0 1.0)">
<rect x="-20.0" y="-20.0" width="40" height="40" stroke="#1565c0" fill="#e3f2fd"/>
</g>
<g transform="translate(0.0 0.0) rotate(0.0) scale(1.0 1.0)">
<text x="0" y="0" font-family="monospace" font-size="14" fill="black" text-anchor="middle" dominant-baseline="middle">0</text>
</g>
</g>
<g transform="translate(62.0 104.0) rotate(0.0) scale(1.0 1.0)">
<g transform="translate(0.0 0.0) rotate(0.0) scale(1.0 1.0)">
<rect x="-20.0" y="-20.0" width="40" height="40" stroke="#1565c0" fill="#e3f2fd"/>
</g>
<g transform="translate(0.0 0.0) rotate(0.0) scale(1.0 1.0)">
<text x="0" y="0" font-family="monospace" font-size="14" fill="black" text-anchor="middle" dominant-baseline="middle">0</text>
</g>
</g>
<g transform="translate(104.0 104.0) rotate(0.0) scale(1.0 1.0)">
<g transform="translate(0.0 0.0) rotate(0.0) scale(1.0 1.0)">
<rect x="-20.0" y="-20.0" width="40" height="40" stroke="#1565c0" fill="#e3f2fd"/>
</g>
<g transform="translate(0.0 0.0) rotate(0.0) scale(1.0 1.0)">
<text x="0" y="0" font-family="monospace" font-size="14" fill="black" text-anchor="middle" dominant-baseline="middle">1</text>
</g>
</g>
<g transform="translate(146.0 104.0) rotate(0.0) scale(1.0 1.0)">
<g transform="translate(0.0 0.0) rotate(0.0) scale(1.0 1.0)">
<rect x="-20.0" y="-20.0" width="40" height="40" stroke="black" fill="white"/>
</g>
<g transform="translate(0.0 0.0) rotate(0.0) scale(1.0 1.0)">
<text x="0" y="0" font-family="monospace" font-size="14" fill="black" text-anchor="middle" dominant-baseline="middle">0</text>
</g>
</g>
<g transform="translate(188.0 104.0) rotate(0.0) scale(1.0 1.0)">
<g transform="translate(0.0 0.0) rotate(0.0) scale(1.0 1.0)">
<rect x="-20.0" y="-20.0" width="40" height="40" stroke="black" fill="white"/>
</g>
<g transform="translate(0.0 0.0) rotate(0.0) scale(1.0 1.0)">
<text x="0" y="0" font-family="monospace" font-size="14" fill="black" text-anchor="middle" dominant-baseline="middle">0</text>
</g>
</g>
<g transform="translate(20.0 146.0) rotate(0.0) scale(1.0 1.0)">
<g transform="translate(0.0 0.0) rotate(0.0) scale(1.0 1.0)">
<rect x="-20.0" y="-20.0" width="40" height="40" stroke="black" fill="white"/>
</g>
<g transform="translate(0.0 0.0) rotate(0.0) scale(1.0 1.0)">
<text x="0" y="0" font-family="monospace" font-size="14" fill="black" text-anchor="middle" dominant-baseline="middle">0</text>
</g>
</g>
<g transform="translate(62.0 146.0) rotate(0.0) scale(1.0 1.0)">
<g transform="translate(0.0 0.0) rotate(0.0) scale(1.0 1.0)">
<rect x="-20.0" y="-20.0" width="40" height="40" stroke="black" fill="white"/>
</g>
<g transform="translate(0.0 0.0) rotate(0.0) scale(1.0 1.0)">
<text x="0" y="0" font-family="monospace" font-size="14" fill="black" text-anchor="middle" dominant-baseline="middle">0</text>
</g>
</g>
<g transform="translate(104.0 146.0) rotate(0.0) scale(1.0 1.0)">
<g transform="translate(0.0 0.0) rotate(0.0) scale(1.0 1.0)">
<rect x="-20.0" y="-20.0" width="40" height="40" stroke="black" fill="white"/>
</g>
<g transform="translate(0.0 0.0) rotate(0.0) scale(1.0 1.0)">
<text x="0" y="0" font-family="monospace" font-size="14" fill="black" text-anchor="middle" dominant-baseline="middle">0</text>
</g>
</g>
<g transform="translate(146.0 146.0) rotate(0.0) scale(1.0 1.0)">
<g transform="translate(0.0 0.0) rotate(0.0) scale(1.0 1.0)">
<rect x="-20.0" y="-20.0" width="40" height="40" stroke="black" fill="white"/>
</g>
<g transform="translate(0.0 0.0) rotate(0.0) scale(1.0 1.0)">
<text x="0" y="0" font-family="monospace" font-size="14" fill="black" text-anchor="middle" dominant-baseline="middle">1</text>
</g>
</g>
<g transform="translate(188.0 146.0) rotate(0.0) scale(1.0 1.0)">
<g transform="translate(0.0 0.0) rotate(0.0) scale(1.0 1.0)">
<rect x="-20.0" y="-20.0" width="40" height="40" stroke="black" fill="white"/>
</g>
<g transform="translate(0.0 0.0) rotate(0.0) scale(1.0 1.0)">
<text x="0" y="0" font-family="monospace" font-size="14" fill="black" text-anchor="middle" dominant-baseline="middle">0</text>
</g>
</g>
<g transform="translate(20.0 188.0) rotate(0.0) scale(1.0 1.0)">
<g transform="translate(0.0 0.0) rotate(0.0) scale(1.0 1.0)">
<rect x="-20.0" y="-20.0" width="40" height="40" stroke="black" fill="white"/>
</g>
<g transform="translate(0.0 0.0) rotate(0.0) scale(1.0 1.0)">
<text x="0" y="0" font-family="monospace" font-size="14" fill="black" text-anchor="middle" dominant-baseline="middle">0</text>
</g>
</g>
<g transform="translate(62.0 188.0) rotate(0.0) scale(1.0 1.0)">
<g transform="translate(0.0 0.0) rotate(0.0) scale(1.0 1.0)">
<rect x="-20.0" y="-20.0" width="40" height="40" stroke="black" fill="white"/>
</g>
<g transform="translate(0.0 0.0) rotate(0.0) scale(1.0 1.0)">
<text x="0" y="0" font-family="monospace" font-size="14" fill="black" text-anchor="middle" dominant-baseline="middle">0</text>
</g>
</g>
<g transform="translate(104.0 188.0) rotate(0.0) scale(1.0 1.0)">
<g transform="translate(0.0 0.0) rotate(0.0) scale(1.0 1.0)">
<rect x="-20.0" y="-20.0" width="40" height="40" stroke="black" fill="white"/>
</g>
<g transform="translate(0.0 0.0) rotate(0.0) scale(1.0 1.0)">
<text x="0" y="0" font-family="monospace" font-size="14" fill="black" text-anchor="middle" dominant-baseline="middle">0</text>
</g>
</g>
<g transform="translate(146.0 188.0) rotate(0.0) scale(1.0 1.0)">
<g transform="translate(0.0 0.0) rotate(0.0) scale(1.0 1.0)">
<rect x="-20.0" y="-20.0" width="40" height="40" stroke="black" fill="white"/>
</g>
<g transform="translate(0.0 0.0) rotate(0.0) scale(1.0 1.0)">
<text x="0" y="0" font-family="monospace" font-size="14" fill="black" text-anchor="middle" dominant-baseline="middle">0</text>
</g>
</g>
<g transform="translate(188.0 188.0) rotate(0.0) scale(1.0 1.0)">
<g transform="translate(0.0 0.0) rotate(0.0) scale(1.0 1.0)">
<rect x="-20.0" y="-20.0" width="40" height="40" stroke="black" fill="white"/>
</g>
<g transform="translate(0.0 0.0) rotate(0.0) scale(1.0 1.0)">
<text x="0" y="0" font-family="monospace" font-size="14" fill="black" text-anchor="middle" dominant-baseline="middle">1</text>
</g>
</g>
</g>
<g transform="translate(104.0 -18.0) rotate(0.0) scale(1.0 1.0)">
<text x="0" y="0" font-family="sans-serif" font-size="16" fill="black" text-anchor="middle" dominant-baseline="middle">Input (5x5)</text>
</g>
</g>
<g transform="translate(237.0 91.0) rotate(0.0) scale(1.0 1.0)">
<text x="0" y="0" font-family="sans-serif" font-size="30" fill="black" text-anchor="middle" dominant-baseline="middle">∗</text>
</g>
<g transform="translate(266.0 42.0) rotate(0.0) scale(1.0 1.0)">
<g transform="translate(0.0 0.0) rotate(0.0) scale(1.0 1.0)">
<g transform="translate(20.0 20.0) rotate(0.0) scale(1.0 1.0)">
<g transform="translate(0.0 0.0) rotate(0.0) scale(1.0 1.0)">
<rect x="-20.0" y="-20.0" width="40" height="40" stroke="#1565c0" fill="#e3f2fd"/>
</g>
<g transform="translate(0.0 0.0) rotate(0.0) scale(1.0 1.0)">
<text x="0" y="0" font-family="monospace" font-size="14" fill="black" text-anchor="middle" dominant-baseline="middle">1</text>
</g>
</g>
<g transform="translate(62.0 20.0) rotate(0.0) scale(1.0 1.0)">
<g transform="translate(0.0 0.0) rotate(0.0) scale(1.0 1.0)">
<rect x="-20.0" y="-20.0" width="40" height="40" stroke="#1565c0" fill="#e3f2fd"/>
</g>
<g transform="translate(0.0 0.0) rotate(0.0) scale(1.0 1.0)">
<text x="0" y="0" font-family="monospace" font-size="14" fill="black" text-anchor="middle" dominant-baseline="middle">0</text>
</g>
</g>
<g transform="translate(104.0 20.0) rotate(0.0) scale(1.0 1.0)">
<g transform="translate(0.0 0.0) rotate(0.0) scale(1.0 1.0)">
<rect x="-20.0" y="-20.0" width="40" height="40" stroke="#1565c0" fill="#e3f2fd"/>
</g>
<g transform="translate(0.0 0.0) rotate(0.0) scale(1.0 1.0)">
<text x="0" y="0" font-family="monospace" font-size="14" fill="black" text-anchor="middle" dominant-baseline="middle">1</text>
</g>
</g>
<g transform="translate(20.0 62.0) rotate(0.0) scale(1.0 1.0)">
<g transform="translate(0.0 0.0) rotate(0.0) scale(1.0 1.0)">
<rect x="-20.0" y="-20.0" width="40" height="40" stroke="#1565c0" fill="#e3f2fd"/>
</g>
<g transform="translate(0.0 0.0) rotate(0.0) scale(1.0 1.0)">
<text x="0" y="0" font-family="monospace" font-size="14" fill="black" text-anchor="middle" dominant-baseline="middle">0</text>
</g>
</g>
<g transform="translate(62.0 62.0) rotate(0.0) scale(1.0 1.0)">
<g transform="translate(0.0 0.0) rotate(0.0) scale(1.0 1.0)">
<rect x="-20.0" y="-20.0" width="40" height="40" stroke="#1565c0" fill="#e3f2fd"/>
</g>
<g transform="translate(0.0 0.0) rotate(0.0) scale(1.0 1.0)">
<text x="0" y="0" font-family="monospace" font-size="14" fill="black" text-anchor="middle" dominant-baseline="middle">1</text>
</g>
</g>
<g transform="translate(104.0 62.0) rotate(0.0) scale(1.0 1.0)">
<g transform="translate(0.0 0.0) rotate(0.0) scale(1.0 1.0)">
<rect x="-20.0" y="-20.0" width="40" height="40" stroke="#1565c0" fill="#e3f2fd"/>
</g>
<g transform="translate(0.0 0.0) rotate(0.0) scale(1.0 1.0)">
<text x="0" y="0" font-family="monospace" font-size="14" fill="black" text-anchor="middle" dominant-baseline="middle">0</text>
</g>
</g>
<g transform="translate(20.0 104.0) rotate(0.0) scale(1.0 1.0)">
<g transform="translate(0.0 0.0) rotate(0.0) scale(1.0 1.0)">
<rect x="-20.0" y="-20.0" width="40" height="40" stroke="#1565c0" fill="#e3f2fd"/>
</g>
<g transform="translate(0.0 0.0) rotate(0.0) scale(1.0 1.0)">
<text x="0" y="0" font-family="monospace" font-size="14" fill="black" text-anchor="middle" dominant-baseline="middle">1</text>
</g>
</g>
<g transform="translate(62.0 104.0) rotate(0.0) scale(1.0 1.0)">
<g transform="translate(0.0 0.0) rotate(0.0) scale(1.0 1.0)">
<rect x="-20.0" y="-20.0" width="40" height="40" stroke="#1565c0" fill="#e3f2fd"/>
</g>
<g transform="translate(0.0 0.0) rotate(0.0) scale(1.0 1.0)">
<text x="0" y="0" font-family="monospace" font-size="14" fill="black" text-anchor="middle" dominant-baseline="middle">0</text>
</g>
</g>
<g transform="translate(104.0 104.0) rotate(0.0) scale(1.0 1.0)">
<g transform="translate(0.0 0.0) rotate(0.0) scale(1.0 1.0)">
<rect x="-20.0" y="-20.0" width="40" height="40" stroke="#1565c0" fill="#e3f2fd"/>
</g>
<g transform="translate(0.0 0.0) rotate(0.0) scale(1.0 1.0)">
<text x="0" y="0" font-family="monospace" font-size="14" fill="black" text-anchor="middle" dominant-baseline="middle">1</text>
</g>
</g>
</g>
<g transform="translate(62.0 -18.0) rotate(0.0) scale(1.0 1.0)">
<text x="0" y="0" font-family="sans-serif" font-size="16" fill="black" text-anchor="middle" dominant-baseline="middle">Kernel (3x3)</text>
</g>
</g>
<g transform="translate(419.0 91.0) rotate(0.0) scale(1.0 1.0)">
<text x="0" y="0" font-family="sans-serif" font-size="30" fill="black" text-anchor="middle" dominant-baseline="middle">=</text>
</g>
<g transform="translate(448.0 42.0) rotate(0.0) scale(1.0 1.0)">
<g transform="translate(0.0 0.0) rotate(0.0) scale(1.0 1.0)">
<g transform="translate(20.0 20.0) rotate(0.0) scale(1.0 1.0)">
<g transform="translate(0.0 0.0) rotate(0.0) scale(1.0 1.0)">
<rect x="-20.0" y="-20.0" width="40" height="40" stroke="#1565c0" fill="#e3f2fd"/>
</g>
<g transform="translate(0.0 0.0) rotate(0.0) scale(1.0 1.0)">
<text x="0" y="0" font-family="monospace" font-size="14" fill="black" text-anchor="middle" dominant-baseline="middle">2</text>
</g>
</g>
<g transform="translate(62.0 20.0) rotate(0.0) scale(1.0 1.0)">
<g transform="translate(0.0 0.0) rotate(0.0) scale(1.0 1.0)">
<rect x="-20.0" y="-20.0" width="40" height="40" stroke="black" fill="white"/>
</g>
<g transform="translate(0.0 0.0) rotate(0.0) scale(1.0 1.0)">
<text x="0" y="0" font-family="monospace" font-size="14" fill="black" text-anchor="middle" dominant-baseline="middle">1</text>
</g>
</g>
<g transform="translate(104.0 20.0) rotate(0.0) scale(1.0 1.0)">
<g transform="translate(0.0 0.0) rotate(0.0) scale(1.0 1.0)">
<rect x="-20.0" y="-20.0" width="40" height="40" stroke="black" fill="white"/>
</g>
<g transform="translate(0.0 0.0) rotate(0.0) scale(1.0 1.0)">
<text x="0" y="0" font-family="monospace" font-size="14" fill="black" text-anchor="middle" dominant-baseline="middle">2</text>
</g>
</g>
<g transform="translate(20.0 62.0) rotate(0.0) scale(1.0 1.0)">
<g transform="translate(0.0 0.0) rotate(0.0) scale(1.0 1.0)">
<rect x="-20.0" y="-20.0" width="40" height="40" stroke="black" fill="white"/>
</g>
<g transform="translate(0.0 0.0) rotate(0.0) scale(1.0 1.0)">
<text x="0" y="0" font-family="monospace" font-size="14" fill="black" text-anchor="middle" dominant-baseline="middle">1</text>
</g>
</g>
<g transform="translate(62.0 62.0) rotate(0.0) scale(1.0 1.0)">
<g transform="translate(0.0 0.0) rotate(0.0) scale(1.0 1.0)">
<rect x="-20.0" y="-20.0" width="40" height="40" stroke="black" fill="white"/>
</g>
<g transform="translate(0.0 0.0) rotate(0.0) scale(1.0 1.0)">
<text x="0" y="0" font-family="monospace" font-size="14" fill="black" text-anchor="middle" dominant-baseline="middle">3</text>
</g>
</g>
<g transform="translate(104.0 62.0) rotate(0.0) scale(1.0 1.0)">
<g transform="translate(0.0 0.0) rotate(0.0) scale(1.0 1.0)">
<rect x="-20.0" y="-20.0" width="40" height="40" stroke="black" fill="white"/>
</g>
<g transform="translate(0.0 0.0) rotate(0.0) scale(1.0 1.0)">
<text x="0" y="0" font-family="monospace" font-size="14" fill="black" text-anchor="middle" dominant-baseline="middle">1</text>
</g>
</g>
<g transform="translate(20.0 104.0) rotate(0.0) scale(1.0 1.0)">
<g transform="translate(0.0 0.0) rotate(0.0) scale(1.0 1.0)">
<rect x="-20.0" y="-20.0" width="40" height="40" stroke="black" fill="white"/>
</g>
<g transform="translate(0.0 0.0) rotate(0.0) scale(1.0 1.0)">
<text x="0" y="0" font-family="monospace" font-size="14" fill="black" text-anchor="middle" dominant-baseline="middle">2</text>
</g>
</g>
<g transform="translate(62.0 104.0) rotate(0.0) scale(1.0 1.0)">
<g transform="translate(0.0 0.0) rotate(0.0) scale(1.0 1.0)">
<rect x="-20.0" y="-20.0" width="40" height="40" stroke="black" fill="white"/>
</g>
<g transform="translate(0.0 0.0) rotate(0.0) scale(1.0 1.0)">
<text x="0" y="0" font-family="monospace" font-size="14" fill="black" text-anchor="middle" dominant-baseline="middle">1</text>
</g>
</g>
<g transform="translate(104.0 104.0) rotate(0.0) scale(1.0 1.0)">
<g transform="translate(0.0 0.0) rotate(0.0) scale(1.0 1.0)">
<rect x="-20.0" y="-20.0" width="40" height="40" stroke="black" fill="white"/>
</g>
<g transform="translate(0.0 0.0) rotate(0.0) scale(1.0 1.0)">
<text x="0" y="0" font-family="monospace" font-size="14" fill="black" text-anchor="middle" dominant-baseline="middle">2</text>
</g>
</g>
</g>
<g transform="translate(62.0 -18.0) rotate(0.0) scale(1.0 1.0)">
<text x="0" y="0" font-family="sans-serif" font-size="16" fill="black" text-anchor="middle" dominant-baseline="middle">Result (3x3)</text>
</g>
</g>
</g>
</svg>