<svg xmlns="http://www.w3.org/2000/svg" width="295.0" height="120.0" viewBox="-10.0 -60.0 295.0 120.0">
  <defs><marker id="arrow" viewBox="-10 -4 10 8" refX="0" refY="0" orient="auto" markerWidth="10" markerHeight="8"><path d="M -10 -4 L 0 0 L -10 4 Z" fill="rgba(0,0,0,1.0)" stroke="rgba(0,0,0,0.0)" stroke-width="1.0"/></marker></defs>
  <g transform="translate(25.0 0.0) rotate(0.0) scale(1.0 1.0)">
<path d="M -25.0 -50.0 M -24.910011727347648 -50.0 C -9.910011727347648 -49.302866007710584, 10.089988272652352 -52.37494622388667, 24.910011727347648 -50.0 M -25.070679794969166 -50.0 C -10.070679794969166 -51.38394630925588, 9.929320205030834 -48.81764392917994, 25.070679794969166 -50.0 M 25.0 -49.96876872787411 C 21.078204322951546 -19.968768727874107, 29.13061167370584 20.031231272125893, 25.0 49.96876872787411 M 25.0 -50.00214211524135 C 29.702027805619295 -20.002142115241348, 27.813620251963968 19.997857884758652, 25.0 50.00214211524135 M 25.059953775111808 50.0 C 10.059953775111808 52.367320151580685, -9.940046224888192 51.505811746566756, -25.059953775111808 50.0 M 25.035706273550364 50.0 C 10.035706273550364 49.77529259698392, -9.964293726449636 51.39779688979652, -25.035706273550364 50.0 M -25.0 50.12232770073312 C -21.905695433221734 20.122327700733123, -29.93501240321939 -19.877672299266877, -25.0 -50.12232770073312 M -25.0 49.862191799924716 C -23.018606050117732 19.862191799924716, -26.597494834820083 -20.137808200075284, -25.0 -49.862191799924716" fill="rgba(0,0,0,0.0)" stroke="rgba(255,0,0,1.0)" stroke-width="2"/>
</g>
<g transform="translate(125.0 0.0) rotate(0.0) scale(1.0 1.0)">
<path d="M 50.0 0.0 M 50.0 0.0 C 54.57213072206781 23.581401259884636, 31.089181155024594 52.29731786693818, 0.36228091454700717 50.52040631273227 M 50.0 0.0 C 53.29404664252995 28.387758944117618, 29.65995585369923 47.89387963602107, -4.202080230763725 47.779736031100924 M 0.0 50.0 C -26.257393048905996 47.09507030771488, -52.33022177950887 28.70554754821988, -53.288613518019034 -1.205445582423522 M 0.0 50.0 C -22.719003985184045 51.84614250989875, -46.5714807981019 22.935239930590374, -51.84546951940918 4.429097143350544 M -50.0 0.0 C -46.23632373527331 -28.657918480943355, -23.46876159414456 -52.53372492306016, 0.6136813416315077 -46.02177116397523 M -50.0 0.0 C -51.005994948596026 -27.518974554785352, -31.705143369812056 -48.7255395829691, 2.920793643629641 -51.18380713493463 M 0.0 -50.0 C 32.57545129395096 -46.39220297765502, 45.11481021942819 -27.244534187462044, 47.66825189952543 -0.6523474933089499 M 0.0 -50.0 C 27.15147455484206 -52.366109492489095, 50.005861130502986 -23.90905179318233, 47.98444791448633 -3.471607314503652" fill="rgba(0,0,0,0.0)" stroke="rgba(0,128,0,1.0)" stroke-width="2"/>
</g>
<g transform="translate(237.5 0.0) rotate(0.0) scale(1.0 1.0)">
<path d="M -37.5 -37.5 M -37.611450591452225 -37.5 C -15.111450591452225 -35.53116899943637, 14.888549408547775 -37.20465727410281, 37.611450591452225 -37.5 M -37.42966242280187 -37.5 C -14.929662422801869 -37.27234745853617, 15.070337577198131 -41.24571077904042, 37.42966242280187 -37.5 M 37.5 -37.65148875112927 C 41.103924432106254 -15.151488751129271, 34.28176037801537 14.848511248870729, 37.5 37.65148875112927 M 37.5 -37.323170066597676 C 35.012508529791155 -14.823170066597676, 38.943644059480036 15.176829933402324, 37.5 37.323170066597676 M 37.33426138082715 37.5 C 14.83426138082715 34.6649280059697, -15.16573861917285 34.14787916026504, -37.33426138082715 37.5 M 37.60424086610289 37.5 C 15.104240866102892 37.605071525125396, -14.895759133897108 40.73090611148712, -37.60424086610289 37.5 M -37.5 37.490112951239496 C -35.50624178019759 14.990112951239496, -40.287064016251776 -15.009887048760504, -37.5 -37.490112951239496 M -37.5 37.6489732164341 C -37.12647304878792 15.1489732164341, -39.26207528294956 -14.8510267835659, -37.5 -37.6489732164341" fill="rgba(0,0,0,0.0)" stroke="rgba(0,0,255,1.0)" stroke-width="2"/>
</g>
</svg>