<svg xmlns="http://www.w3.org/2000/svg" width="284.6410161513776" height="105.0" viewBox="5.358983848622437 0.0 284.6410161513776 105.0">
  <defs><marker id="arrow" viewBox="-10 -4 10 8" refX="0" refY="0" orient="auto" markerWidth="10" markerHeight="8"><path d="M -10 -4 L 0 0 L -10 4 Z" fill="rgba(0,0,0,1.0)" stroke="rgba(0,0,0,0.0)" stroke-width="1.0"/></marker></defs>
  <g transform="translate(50.0 50.0) rotate(0.0) scale(1.0 1.0)">
<path d="M -17.32050807568878 -29.999999999999986 L 2.4492935982947065e-15 -40.0 L 34.64101615137754 -20.0 L 34.64101615137755 19.999999999999993 L 2.4492935982947065e-15 40.0 L -34.64101615137754 20.000000000000014 L -34.64101615137756 -19.999999999999975 Z" fill="rgba(240,248,255,1.0)" stroke="rgba(0,0,0,1.0)" stroke-width="1.0"/>
</g>
  <g transform="translate(150.0 50.0) rotate(0.0) scale(1.0 1.0)">
<path d="M -1.5628431080946807 -34.53420054339642 L -1.5628431080946803 -34.53420054339643 Q 2.1431318985078682e-15 -35.0, 1.5628431080946845 -34.53420054339643 L 1.5628431080946845 -34.53420054339642 Q 3.125686216189367 -34.06840108679285, 4.755524936410062 -34.12383988512579 L 4.823019838488113 -34.12613571735653 Q 6.520353460786859 -34.18387034792022, 8.183540505467377 -34.52750324413214 L 12.580069111838013 -35.43587483295481 Q 14.874368670764586 -35.90990257669732, 17.214150296077328 -36.02794796532871 L 17.299007977405083 -36.03222915886503 Q 19.553931921390074 -36.1459933539601, 21.771526085068487 -35.721846668882975 L 21.906199491244365 -35.696088448676086 Q 23.989120248746897 -35.297699983805856, 25.882584701541653 -34.34267924215716 L 26.000011292175806 -34.283451919715915 Q 27.776049154336413 -33.38765850050846, 29.280160200899157 -32.085964873985176 L 29.280160200899157 -32.085964873985176 Q 30.784271247461902 -30.7842712474619, 30.86468703881111 -28.796737690958995 L 30.885533969447515 -28.281490952790158 Q 30.986796691433128 -25.77871065811842, 30.77724693626693 -23.28266333437416 L 30.758915375180532 -23.064307345585398 Q 30.56661870241087 -20.773769735312595, 30.270214775508325 -18.494365149340794 L 30.221516049915813 -18.11986235645757 Q 29.97381084860578 -16.21496056336899, 29.92408975968518 -14.294664617066786 L 29.917475164164017 -14.039199959283389 Q 29.874368670764582 -12.37436867076458, 30.362696728437548 -10.782182407448087 L 30.362696728437548 -10.782182407448087 Q 30.851024786110514 -9.189996144131594, 31.87612250512849 -7.877480980231179 L 31.974438350280675 -7.751599286008362 Q 33.097851914450835 -6.313202427885129, 34.44457994503886 -5.0813878439282805 L 38.59476314547778 -1.2853309740336416 Q 40.0 0.0, 40.367317029289694 1.868647781180703 L 40.367317029289694 1.868647781180703 Q 40.734634058579395 3.737295562361406, 40.878346082887596 5.636272440626914 L 40.889458883929755 5.783114379103614 Q 41.044283709280116 7.828933195845821, 40.71495217577341 9.853997663589842 L 40.70323117938301 9.926070243655325 Q 40.36217864948591 12.023207291464828, 39.40850153560913 13.921838532098995 L 39.386040613091616 13.966554934081074 Q 38.40990257669732 15.909902576697318, 36.9225675241967 17.496496402400922 L 36.86083460623261 17.562349127595436 Q 35.3815282107216 19.14037849595838, 33.620658189751786 20.396507815919314 L 33.4615736510965 20.50999191808338 Q 31.859788168781982 21.65263713588025, 30.18523308020359 22.685700580410078 L 29.96621656118207 22.82081584839531 Q 28.5106779916252 23.7187640249399, 27.14747461954355 24.7515176362009 L 27.14747461954355 24.7515176362009 Q 25.784271247461902 25.7842712474619, 24.079500224204946 25.92086997912089 L 23.435213593867843 25.97249493949871 Q 21.721425528721916 26.109816182549874, 20.079356075583938 26.619261534968434 L 20.040937850939805 26.631180632516788 Q 18.437286622445956 27.128706887386993, 17.119346880191628 28.169026296377137 L 17.119346880191628 28.169026296377137 Q 15.801407137937302 29.20934570536728, 14.821710525588738 30.572952754589217 L 12.215595415710007 34.200317481711565 Q 10.782057576701618 36.195611002133305, 9.201919869822856 38.07693813897202 L 9.156752609202353 38.13071471346429 Q 7.621782162944095 39.95826527581073, 5.783581879310104 41.48046600044168 L 5.64835575493947 41.59244580282702 Q 3.945381595676113 43.00266672507262, 1.972690797838058 44.001333362536315 L 1.972690797838058 44.001333362536315 Q 2.7554552980815448e-15 45.0, -1.9726907978380526 44.001333362536315 L -1.9726907978380526 44.001333362536315 Q -3.945381595676108 43.00266672507262, -5.648355754939466 41.59244580282702 L -5.7835818793101 41.48046600044168 Q -7.621782162944092 39.95826527581074, -9.15675260920235 38.1307147134643 L -9.201919869822852 38.076938138972025 Q -10.782057576701614 36.19561100213331, -12.215595415710002 34.20031748171157 L -14.821710525588735 30.572952754589217 Q -15.801407137937298 29.20934570536728, -17.119346880191625 28.169026296377137 L -17.119346880191625 28.169026296377137 Q -18.437286622445953 27.128706887386993, -20.0409378509398 26.631180632516788 L -20.07935607558393 26.619261534968434 Q -21.721425528721912 26.109816182549874, -23.43521359386784 25.97249493949871 L -24.07950022420494 25.92086997912089 Q -25.784271247461895 25.7842712474619, -27.147474619543544 24.7515176362009 L -27.147474619543544 24.7515176362009 Q -28.510677991625194 23.7187640249399, -29.966216561182065 22.820815848395313 L -30.185233080203588 22.685700580410078 Q -31.859788168781982 21.652637135880255, -33.4615736510965 20.509991918083383 L -33.62065818975179 20.39650781591932 Q -35.3815282107216 19.140378495958387, -36.86083460623261 17.562349127595443 L -36.9225675241967 17.496496402400926 Q -38.40990257669732 15.909902576697322, -39.386040613091616 13.966554934081078 L -39.40850153560913 13.921838532099002 Q -40.36217864948591 12.023207291464836, -40.70323117938301 9.926070243655332 L -40.71495217577341 9.853997663589848 Q -41.044283709280116 7.828933195845826, -40.889458883929755 5.783114379103619 L -40.878346082887596 5.636272440626919 Q -40.734634058579395 3.7372955623614112, -40.367317029289694 1.868647781180708 L -40.367317029289694 1.868647781180708 Q -40.0 4.898587196589413e-15, -38.59476314547778 -1.285330974033637 L -34.44457994503887 -5.081387843928276 Q -33.097851914450835 -6.313202427885125, -31.974438350280675 -7.751599286008359 L -31.87612250512849 -7.8774809802311765 Q -30.851024786110514 -9.189996144131593, -30.362696728437548 -10.782182407448087 L -30.362696728437548 -10.782182407448087 Q -29.874368670764582 -12.37436867076458, -29.917475164164017 -14.039199959283389 L -29.92408975968518 -14.294664617066786 Q -29.97381084860578 -16.21496056336899, -30.221516049915813 -18.11986235645757 L -30.27021477550833 -18.494365149340794 Q -30.566618702410874 -20.773769735312595, -30.758915375180532 -23.064307345585398 L -30.77724693626693 -23.282663334374153 Q -30.986796691433128 -25.778710658118413, -30.885533969447515 -28.28149095279015 L -30.864687038811113 -28.796737690958988 Q -30.784271247461906 -30.78427124746189, -29.28016020089916 -32.08596487398517 L -29.28016020089916 -32.08596487398517 Q -27.77604915433642 -33.38765850050845, -26.000011292175817 -34.28345191971591 L -25.88258470154166 -34.34267924215716 Q -23.9891202487469 -35.29769998380586, -21.90619949124436 -35.69608844867609 L -21.77152608506849 -35.72184666888298 Q -19.55393192139008 -36.1459933539601, -17.29900797740509 -36.032229158865036 L -17.21415029607733 -36.02794796532871 Q -14.874368670764584 -35.90990257669732, -12.580069111838007 -35.43587483295481 L -8.183540505467372 -34.527503244132134 Q -6.520353460786856 -34.18387034792021, -4.82301983848811 -34.12613571735653 L -4.755524936410058 -34.12383988512578 Q -3.1256862161893637 -34.06840108679285, -1.5628431080946807 -34.53420054339642 Z" fill="rgba(255,228,225,1.0)" stroke="rgba(0,0,0,1.0)" stroke-width="1.0"/>
</g>
  <g transform="translate(250.0 50.0) rotate(0.0) scale(1.0 1.0)">
<path d="M -14.999999999999998 -14.999999999999998 L 1.83697019872103e-15 -30.0 L 30.0 0.0 L 1.83697019872103e-15 30.0 L -30.0 3.67394039744206e-15 Z" fill="rgba(0,0,0,0.0)" stroke="rgba(0,0,0,1.0)" stroke-width="1.0"/>
</g>
  <g transform="translate(250.0 50.0) rotate(0.0) scale(1.0 1.0)">
<path d="M -12.5 -12.499999999999998 L 1.5308084989341917e-15 -25.0 L 25.0 0.0 L 1.5308084989341917e-15 25.0 L -25.0 3.0616169978683834e-15 Z" fill="rgba(0,0,0,0.0)" stroke="rgba(0,0,0,1.0)" stroke-width="1.0"/>
</g>
</svg>