<svg xmlns="http://www.w3.org/2000/svg" width="320.4" height="78.08822680711148" viewBox="-10.0 -34.0 320.4 78.08822680711148">
  <defs><marker id="arrow" viewBox="-10 -4 10 8" refX="0" refY="0" orient="auto" markerWidth="10" markerHeight="8"><path d="M -10 -4 L 0 0 L -10 4 Z" fill="rgba(0,0,0,1.0)" stroke="rgba(0,0,0,0.0)" stroke-width="1.0"/></marker></defs>
  <g transform="translate(15.0 0.0) rotate(0.0) scale(1.0 1.0)">
<rect x="-15.0" y="-15.0" width="30" height="30" stroke="rgba(0,0,0,0.0)" fill="rgba(0,128,0,1.0)"/>
</g>
<g transform="translate(145.2 0.0) rotate(0.0) scale(1.0 1.0)">
<text x="0" y="0" font-family="sans-serif" font-size="48" fill="rgba(0,0,128,1.0)" text-anchor="middle" dominant-baseline="middle">tesserax</text>
</g>
<g transform="translate(280.4 0.0) rotate(0.0) scale(1.0 1.0)">
<circle cx="0" cy="0" r="20" stroke="rgba(0,0,0,0.0)" fill="rgba(255,0,0,1.0)"/>
</g>
  <path d="M 15.0 23.596531137673946 L 16.03671875 23.952925352589766 Q 17.0734375 24.309319567505582, 18.10800788383988 24.67190297019858 L 18.110156250000003 24.67265590293736 Q 19.146875 25.035992238369143, 20.183468597989265 25.399685477039085 L 20.185499932998187 25.400398179499962 Q 21.2203125 25.763466535931336, 22.257031249999997 26.121055564936828 L 22.26084787963289 26.12237201154735 Q 23.29375 26.47864459394232, 24.33046875 26.823653545454725 L 24.33595469416883 26.825479209209476 Q 25.3671875 27.168662496967134, 26.40390625 27.49489876444367 L 26.410708821778375 27.497039408303174 Q 27.440624999999997 27.821135031920207, 28.477343749999996 28.12276318181472 L 28.485013143331663 28.124994553555073 Q 29.514062499999998 28.42439133170923, 30.55078125 28.696044129646307 L 30.558792550911534 28.698143341518122 Q 31.5875 28.967696927583383, 32.62421875 29.20457745647753 L 32.63200302885084 29.206356091320632 Q 33.6609375 29.441457985371677, 34.69765625 29.63943091257093 L 34.70464102602174 29.640764732910203 Q 35.734375 29.837403839770186, 36.77109375 29.9930740967565 L 36.776750951456485 29.993923563407467 Q 37.8078125 30.14874435374282, 38.844531249999996 30.25952173141286 L 38.84842802161366 30.25993811641674 Q 39.881249999999994 30.3702991090829, 40.91796874999999 30.434447539605937 L 40.91981393814114 30.434561713216933 Q 41.95468749999999 30.498595970128974, 42.99140625 30.51526655773506 L 42.99140625 30.51526655773506 Q 44.028124999999996 30.531937145341146, 45.06452189588653 30.501193864945925 L 45.064843749999994 30.50118431758883 Q 46.1015625 30.470431489836514, 47.135872090349274 30.393391407231086 L 47.13828125 30.393211962062797 Q 48.175 30.31599243428908, 49.20748406841427 30.194644708550737 L 49.211718749999996 30.19414700694412 Q 50.248437499999994 30.072301579599163, 51.27950460454267 29.909412965213694 L 51.28515624999999 29.908520114793497 Q 52.32187499999999 29.744738649987834, 53.352034748499484 29.543788339246824 L 53.35859374999999 29.542508893615604 Q 54.39531249999999 29.34027913724337, 55.425124336789224 29.105395715579117 L 55.432031249999994 29.103820360402448 Q 56.46874999999999 28.867361583561525, 57.498773947669584 28.603260869867256 L 57.50546874999999 28.6015443058228 Q 58.5421875 28.33572702808407, 59.572941911062344 28.047647289432582 L 59.578906249999996 28.045980349971593 Q 60.615624999999994 27.756233671859118, 61.64755358730158 27.449864132269227 L 61.65234374999999 27.448441979652724 Q 62.68906249999999 27.14065028744633, 63.722510652856066 26.8220495847616 L 63.72578124999999 26.821041295622592 Q 64.76249999999999 26.501432303798858, 65.79769907615982 26.176934927886535 L 65.7995577967617 26.176352286371724 Q 66.83593749999999 25.851484826677726, 67.87265624999998 25.527700965049704 L 67.87482965691193 25.52702217527877 Q 68.90937499999998 25.20391710342168, 69.94609374999999 24.887855103549203 L 69.94994810797566 24.88668003452492 Q 70.9828125 24.571793103676725, 72.01953125 24.26983803263265 L 72.02479248570373 24.26830564325443 Q 73.05624999999999 23.967882961588572, 74.09296874999998 23.686151485079527 L 74.09925363816937 23.684443547585722 Q 75.12968749999999 23.404420008570487, 76.16640625 23.148644013981105 L 76.1732408192093 23.14695781052708 Q 77.203125 22.892868019391724, 78.23984375 22.66828555970136 L 78.24669022830997 22.666802419805347 Q 79.2765625 22.443703100010996, 80.31328124999999 22.25495873350671 L 80.31957449893696 22.253812988545643 Q 81.35 22.06621436700243, 82.38671875 21.9172707889456 L 82.39191145805964 21.91652476161832 Q 83.42343749999999 21.768327210888774, 84.46015624999998 21.662389858449664 L 84.46376962926213 21.662020624428976 Q 85.49687499999999 21.556452506010558, 86.53359375 21.495908570953056 L 86.53526770811652 21.49581081250941 Q 87.5703125 21.43536463589555, 88.60703125 21.42173764536943 L 88.60703125 21.42173764536943 Q 89.64375 21.40811065484331, 90.68000376752043 21.442016270485283 L 90.68046874999999 21.44203148443936 Q 91.7171875 21.47595231403541, 92.75129434131249 21.556942622299697 L 92.75390625 21.55714718461503 Q 93.790625 21.63834205519465, 94.82276691860874 21.765075766024545 L 94.82734375000001 21.76563774186876 Q 95.8640625 21.89293342854287, 96.89458676319191 22.063255774170717 L 96.90078125 22.06427958269304 Q 97.9375 22.235625736843208, 98.96687974889608 22.446629537060815 L 98.97421875 22.448133896481515 Q 100.0109375 22.66064205611982, 101.03972275611305 22.908727487612328 L 101.04765624999999 22.91064060236829 Q 102.084375 23.160639148616763, 103.1131421755537 23.441571770843407 L 103.12109375 23.4437431626929 Q 104.15781249999999 23.726847176769038, 105.18711876849731 24.035816843596887 L 105.19453124999998 24.038041868363905 Q 106.23124999999999 24.34923655995877, 107.26159614446198 24.68092123743227 L 107.26796875 24.682972679681946 Q 108.30468749999999 25.016708799405123, 109.33649023096704 25.365347134328804 L 109.34140624999998 25.367008219959473 Q 110.37812499999998 25.717307640513823, 111.41169789775411 26.076782974397 L 111.41484374999999 26.077877097790612 Q 112.4515625 26.4384465550674, 113.48710386952467 26.802383599245946 L 113.48914766830713 26.803101884492364 Q 114.52499999999999 27.167148215132727, 115.56171874999998 27.528719808769026 L 115.56457331274889 27.529715381389135 Q 116.59843749999999 27.89029140240532, 117.63515625 28.242576028823592 L 117.63981901209517 28.244160469543676 Q 118.671875 28.59486065524186, 119.70859375 28.931527279393098 L 119.71476812712005 28.933532361968528 Q 120.7453125 29.268193903544336, 121.78203124999999 29.583208641743752 L 121.78931526818496 29.585421945092975 Q 122.81875 29.898223379943165, 123.85546875 30.18596430179797 L 123.86337292575536 30.188158102979195 Q 124.89218749999999 30.473705223652775, 125.92890624999998 30.729069316080814 L 125.9368798655408 30.73103337344541 Q 126.96562499999999 30.984433408508853, 128.00234375 31.20293366672842 L 128.00981056376358 31.20450738258474 Q 129.0390625 31.42143392494799, 130.07578124999998 31.59928472316541 L 130.08218399221153 31.600383124070287 Q 131.11249999999998 31.77713552138283, 132.14921875 31.911324638897312 L 132.15406921769454 31.911952465855652 Q 133.18593749999997 32.04551375641179, 134.22265624999997 32.133859688753894 L 134.22558503046724 32.13410927027348 Q 135.25937499999998 32.222205621095995, 136.29609374999998 32.263399085786055 L 136.29689162099336 32.26343078876297 Q 137.3328125 32.304592550476116, 138.36953125 32.298221397705404 L 138.36953125 32.298221397705404 Q 139.40625 32.2918502449347, 140.44161354581652 32.2384771601123 L 140.44296875 32.23840729921356 Q 141.4796875 32.184964353492425, 142.5130698261324 32.08615705069489 L 142.51640625 32.085838037068456 Q 143.553125 31.986711720644486, 144.58486403968735 31.844844362896584 L 144.58984375 31.844159637091675 Q 145.62656249999998 31.701607553538864, 146.65712201849811 31.519800122558486 L 146.66328124999998 31.51871353412175 Q 147.7 31.33581951470464, 148.72992017937273 31.117873619902827 L 148.73671875 31.116434944762354 Q 149.7734375 30.897050374820072, 150.80328386811854 30.64738697301002 L 150.81015624999998 30.64572091650666 Q 151.84687499999998 30.394391458193255, 152.87719211354386 30.11798793296916 L 152.88359375 30.11627056376271 Q 153.92031249999997 29.838149669332168, 154.95158606824359 29.5404722836233 L 154.95703124999997 29.538900530482458 Q 155.99374999999998 29.239651391632748, 157.02637851880422 28.926579265987492 L 157.03046874999998 28.92533919044094 Q 158.0671875 28.611026989249133, 159.10146263941385 28.288764887211016 L 159.10390625 28.28800350075393 Q 160.140625 27.964980012258728, 161.17671914710738 27.63995869134111 L 161.17858288067876 27.639374040661533 Q 162.2140625 27.314545496272324, 163.25078125 26.993693725701945 L 163.2537959743829 26.992760705385646 Q 164.2875 26.672841955131563, 165.32421875 26.36283187023181 L 165.3287961218921 26.361463098374546 Q 166.36093749999998 26.05282178533205, 167.39765624999998 25.759923308180944 L 167.4034674835044 25.758281492168834 Q 168.434375 25.46702483102984, 169.47109375 25.197182314692213 L 169.4777088576332 25.195460500275736 Q 170.5078125 24.92733979835459, 171.54453125 24.686058928382515 L 171.55144140212317 24.684450693250355 Q 172.58125 24.444778058410435, 173.61796875000002 24.237021100523084 L 173.62461777981835 24.235688644437033 Q 174.65468750000002 24.029264142635732, 175.69140625 23.859355529618288 L 175.69723156371177 23.858400814587664 Q 176.728125 23.689446916600843, 177.76484375 23.560990970745536 L 177.76932476968784 23.56043574434262 Q 178.8015625 23.432535024890228, 179.83828125 23.348347381409674 L 179.8409907629132 23.348127353068193 Q 180.875 23.264159737929123, 181.91171875 23.22621377409432 L 181.91237001296562 23.226189936577214 Q 182.9484375 23.188267810259518, 183.98515625 23.197657099512828 L 183.98515625 23.197657099512828 Q 185.021875 23.207046388766138, 186.05707729589182 23.263880638426944 L 186.05859375 23.26396389416519 Q 187.09531249999998 23.320881399564247, 188.12843354770575 23.42425581520815 L 188.13203124999998 23.424615802426636 Q 189.16875 23.52835020528903, 190.20005586462617 23.676521749542424 L 190.20546875 23.6772994388897 Q 191.2421875 23.826248672490376, 192.27209215151044 24.016690394780817 L 192.27890624999998 24.017950403316853 Q 193.31562499999998 24.209652134143326, 194.34464521991677 24.439113911365222 L 194.35234375 24.44083061076597 Q 195.38906249999997 24.67200908738862, 196.4177672210376 24.936576378583112 L 196.42578124999997 24.93863746558968 Q 197.46249999999998 25.20526584379074, 198.4914615380088 25.500417689392673 L 198.49921874999998 25.502642802141157 Q 199.5359375 25.800019760491573, 200.5656897559691 26.12068954903716 L 200.57265624999997 26.122858948671723 Q 201.60937499999997 26.445698136851874, 202.64038090922494 26.78634123918851 L 202.64609374999998 26.788228754853883 Q 203.68281249999995 27.130759372855888, 204.71544071020907 27.48543101022027 L 204.71953124999996 27.486835967426554 Q 205.75624999999997 27.84291256199722, 206.79075939558533 28.205357893389703 L 206.79296874999997 28.206131951311644 Q 207.82968749999998 28.569351340626067, 208.8662177557253 28.93310829291913 L 208.86825083592979 28.93382177624957 Q 209.903125 29.296997544491465, 210.93984375 29.654873790554987 L 210.94360435125054 29.65617195349309 Q 211.9765625 30.01275003661851, 213.01328124999998 30.35824200444378 L 213.01872034515893 30.360054611469213 Q 214.04999999999998 30.703733972269053, 215.08671875 31.03063986534432 L 215.09348691744316 31.032774054411984 Q 216.12343749999997 31.357545758419587, 217.16015624999997 31.660017402762584 L 217.1678063988226 31.662249399718217 Q 218.19687499999998 31.96248904710558, 219.23359374999998 32.23514315983982 L 219.2416028708968 32.23724953608883 Q 220.2703125 32.50779727257407, 221.30703125 32.74581788539015 L 221.31483121375598 32.747608681739834 Q 222.34375 32.98383849820624, 223.38046875 33.18306858697805 L 223.38748649720378 33.18441721349647 Q 224.4171875 33.382298675749865, 225.45390625 33.539319252941425 L 225.45961157442335 33.54018337673008 Q 226.490625 33.696339830132985, 227.52734375 33.80853499516747 L 227.531300114778 33.80896315854274 Q 228.56406249999998 33.920730160201956, 229.60078124999998 33.98633687013093 L 229.60269252988869 33.98645782172484 Q 230.6375 34.051943580059906, 231.67421875 34.0700851935857 L 231.67421875 34.0700851935857 Q 232.7109375 34.08822680711149, 233.74740119462237 34.05893697145745 L 233.74765624999998 34.0589297637471 Q 234.78437499999998 34.029632720382715, 235.81874603017636 33.953997706775944 L 235.82109375 33.95382603740816 Q 236.85781249999997 33.878019354433604, 237.89034751314446 33.75800324544887 L 237.89453124999997 33.7575169512196 Q 238.93124999999998 33.637014548005595, 239.96235365303824 33.47536105292085 L 239.96796874999998 33.47448073400584 Q 241.0046875 33.311946920006086, 242.03486703744525 33.112114170127796 L 242.04140624999997 33.1108457030506 Q 243.07812499999997 32.909744486095114, 244.10793908947474 32.6758419269347 L 244.11484374999998 32.67427366545577 Q 245.15156249999995 32.43880284481643, 246.18157182340587 32.17552909437601 L 246.18828124999996 32.17381414300364 Q 247.22499999999997 31.908825441190857, 248.25572474087488 31.62140364793517 L 248.26171874999997 31.619732194070526 Q 249.29843749999998 31.330638946950195, 250.33032407766976 31.024745561998632 L 250.33515624999998 31.02331310848799 Q 251.371875 30.715987270025785, 252.4052721141477 30.397670851882953 L 252.40859375 30.396647691267923 Q 253.4453125 30.07730811251006, 254.48045520156498 29.752896151325544 L 254.48231252579512 29.752314069072394 Q 255.51874999999998 29.427496328345836, 256.55546875 29.103577455747605 L 256.5575871261243 29.102915577098333 Q 257.59218749999997 28.779658583149374, 258.62890625 28.463261283604872 L 258.6327121685904 28.462099751256492 Q 259.665625 28.146863984060367, 260.70234374999995 27.84437970412384 L 260.7075667251545 27.84285579237947 Q 261.7390625 27.54189542418731, 262.77578125 27.259450898404012 L 262.7820411937874 27.257745434068127 Q 263.8125 26.97700637262071, 264.84921875 26.720347054999287 L 264.856044139335 26.71865730088881 Q 265.8859375 26.46368773737786, 266.92265625000005 26.23806848718567 L 266.92951078818743 26.236576746280765 Q 267.959375 26.01244923699348, 268.99609375 25.822534338709616 L 269.0024125072831 25.821376815372936 Q 270.0328125 25.632619440425756, 271.06953124999995 25.482393860093037 L 271.0747656206157 25.481635374376996 Q 272.10625 25.332168279760317, 273.14296875 25.224861846191345 L 273.1466370555488 25.224482155184806 Q 274.1796875 25.117555412622373, 275.21640625 25.055581366003775 L 275.2181440410118 25.05547748253376 Q 276.25312499999995 24.993607319385177, 277.28984374999993 24.97851639646717 L 277.28984374999993 24.97851639646717 Q 278.32656249999997 24.963425473549165, 279.36288351570306 24.99586395329532 L 280.4 25.02832733246113" fill="rgba(0,0,0,0.0)" stroke="rgba(0,0,0,1.0)" stroke-width="1.0" marker-end="url(#arrow)"/>
</svg>