<svg xmlns="http://www.w3.org/2000/svg" width="320.4" height="82.98944358005991" viewBox="-10.0 -43.0 320.4 82.98944358005991">
  <defs><marker id="arrow" viewBox="-10 -4 10 8" refX="0" refY="0" orient="auto" markerWidth="10" markerHeight="8"><g transform="translate(0.0 0.0) rotate(0.0) scale(1.0 1.0)">
<path d="M -10 -4 L 0 0 L -10 4 Z" fill="black" stroke="none" stroke-width="1"/>
</g></marker></defs>
  <g transform="translate(0.0 0.0) rotate(0.0) scale(1.0 1.0)">
<g transform="translate(15.0 0.0) rotate(0.0) scale(1.0 1.0)">
<rect x="-15.0" y="-15.0" width="30" height="30" stroke="none" fill="green"/>
</g>
<g transform="translate(145.2 -9.0) rotate(0.0) scale(1.0 1.0)">
<text x="0" y="0" font-family="sans-serif" font-size="48" fill="navyblue" text-anchor="middle" dominant-baseline="bottom">tesserax</text>
</g>
<g transform="translate(280.4 -5.0) rotate(0.0) scale(1.0 1.0)">
<circle cx="0" cy="0" r="20" stroke="none" fill="red"/>
</g>
</g>
  <g transform="translate(0.0 0.0) rotate(0.0) scale(1.0 1.0)">
<path d="M 15.0 23.596531137673946 L 19.2013250098647 24.977358665908646 Q 23.29375 26.32239459394232, 27.440624999999997 27.48879576076285 L 27.55070663322867 27.519758677523892 Q 31.5875 28.655196927583383, 35.734375 29.27837301833314 L 35.7790994740393 29.28509403666445 Q 39.881249999999994 29.9015491090829, 44.028124999999996 29.79627077168599 L 44.028124999999996 29.79627077168599 Q 48.175 29.69099243428908, 52.24766320443417 28.902912351303804 L 52.32187499999999 28.888552008925302 Q 56.46874999999999 28.086111583561525, 60.50982082316584 26.857197630495374 L 60.615624999999994 26.82502194368019 Q 64.76249999999999 25.563932303798858, 68.88547833149778 24.226782714769765 L 68.99202161198917 24.19222897903109 Q 73.05624999999999 22.874132961588572, 77.203125 21.8451736642955 L 77.30581931525391 21.81969224263228 Q 81.35 20.81621436700243, 85.49687499999999 20.40903751092287 L 85.5032263682105 20.408413877430238 Q 89.64375 20.00186065484331, 93.790625 20.33749319584326 L 93.790625 20.33749319584326 Q 97.9375 20.673125736843208, 101.9866970332262 21.62875372634286 L 102.084375 21.651806148400986 Q 106.23124999999999 22.63048655995877, 110.28824624302982 23.932473156523326 L 110.39057046527905 23.965311433389196 Q 114.52499999999999 25.292148215132727, 118.671875 26.579560797537944 L 118.77381288566157 26.611207788736014 Q 122.81875 27.866973379943165, 126.96562499999999 28.728304450662996 L 127.04849218415544 28.74551646705031 Q 131.11249999999998 29.58963552138283, 135.25937499999998 29.76886788315877 L 135.25937499999998 29.76886788315877 Q 139.40625 29.948100244934704, 143.52016557733484 29.396380091510395 L 143.553125 29.391959879819673 Q 147.7 28.83581951470464, 151.7377462219523 27.739247666422443 L 151.84687499999998 27.709610453168693 Q 155.99374999999998 26.583401391632748, 160.07641114653137 25.2429547949667 L 160.18797128064722 25.20632662605138 Q 164.2875 23.860341955131563, 168.434375 22.668185006770997 L 168.5443546320156 22.636567708809153 Q 172.58125 21.476028058410435, 176.728125 20.807593898169777 L 176.78062312231134 20.7991317336962 Q 180.875 20.139159737929123, 185.021875 20.193129971609075 L 185.021875 20.193129971609075 Q 189.16875 20.24710020528903, 193.24797623987143 20.995029570732534 L 193.31562499999998 21.007433024539885 Q 197.46249999999998 21.76776584379074, 201.5015988745383 22.976218798339755 L 201.60937499999997 23.008464202893983 Q 205.75624999999997 24.24916256199722, 209.8714704509983 25.591125796810903 L 209.9802379781434 25.62659461903036 Q 214.04999999999998 26.953733972269053, 218.19687499999998 28.015661235237644 L 218.30229492802002 28.04265705633779 Q 222.34375 29.07758849820624, 226.490625 29.533516039133072 L 226.50569987406766 29.535173443868796 Q 230.6375 29.989443580059906, 234.78437499999998 29.70385406403275 L 234.78437499999998 29.70385406403275 Q 238.93124999999998 29.418264548005595, 242.9846354819051 28.4972869302697 L 243.07812499999997 28.476044994598226 Q 247.22499999999997 27.533825441190857, 251.27757272617643 26.245025902279217 L 251.3763046705184 26.213627160555994 Q 255.51874999999998 24.896246328345836, 259.665625 23.592876350483273 L 259.7642170255044 23.561888706510608 Q 263.8125 22.28950637262071, 267.959375 21.388962326190516 L 268.0475983548207 21.36980355797592 Q 272.10625 20.488418279760317, 276.25312499999995 20.258372806110724 L 280.4 20.02832733246113" fill="transparent" stroke="black" stroke-width="1.0" marker-end="url(#arrow)"/>
</g>
</svg>