<svg xmlns="http://www.w3.org/2000/svg" width="340.4" height="82.8194845797872" viewBox="-10.0 -28.0 340.4 82.8194845797872">
  <defs><marker id="arrow" viewBox="-10 -4 10 8" refX="0" refY="0" orient="auto" markerWidth="10" markerHeight="8"><g transform="translate(0.0 0.0) rotate(0.0) scale(1.0)">
<path d="M -10 -4 L 0 0 L -10 4 Z" fill="black" stroke="none" stroke-width="1"/>
</g></marker></defs>
  <g transform="translate(0.0 0.0) rotate(0.0) scale(1.0)">
<g transform="translate(0.0 0.0) rotate(0.0) scale(1.0)">
<rect x="0" y="0" width="30" height="30" stroke="none" fill="#2196F3"/>
</g>
<g transform="translate(155.2 28.0) rotate(0.0) scale(1.0)">
<text x="0" y="0" font-family="sans-serif" font-size="48" fill="#333" text-anchor="middle" dominant-baseline="bottom">Tesserax</text>
</g>
<g transform="translate(300.4 10.0) rotate(0.0) scale(1.0)">
<circle cx="0" cy="0" r="20" stroke="none" fill="#F44336"/>
</g>
</g>
  <g transform="translate(0.0 0.0) rotate(0.0) scale(1.0)">
<path d="M 15.0 41.075599940439076 L 19.751757895980475 42.8870493968624 Q 23.91875 44.47557636877138, 28.378124999999997 44.51044390121038 L 28.378124999999997 44.51044390121038 Q 32.8375 44.545311433649374, 37.01800189291416 42.99268621847846 L 37.296875 42.88911362624296 Q 41.756249999999994 41.232915818836545, 46.054371338773045 39.19449252494821 L 46.54574136819662 38.96145580147089 Q 50.675 37.003117188359454, 55.13437499999999 36.003196400846306 L 55.16241226461084 35.99690963561364 Q 59.59374999999999 35.00327561333315, 64.053125 35.86236658912802 L 64.053125 35.86236658912802 Q 68.51249999999999 36.72145756492289, 72.62858643970362 38.64028405947758 L 73.08881569534496 38.85483253950352 Q 77.43124999999999 40.87917729433213, 81.890625 42.63094268559372 L 82.1978556632877 42.75163135678233 Q 86.35 44.38270807685531, 90.80937499999999 44.503904071141605 L 90.80937499999999 44.503904071141605 Q 95.26875 44.6251000654279, 99.46781300282636 43.118918217857406 L 99.728125 43.02554567150984 Q 104.1875 41.42599127759178, 108.46241731312637 39.384011450154674 L 108.96695945904912 39.14300915499855 Q 113.10624999999999 37.165813535665876, 117.56562499999998 36.09017265280181 L 117.62427482275531 36.07602579430071 Q 122.02499999999999 35.01453176993775, 126.484375 35.79371484134556 L 126.484375 35.79371484134556 Q 130.94375 36.57289791275338, 135.05540890342238 38.46694456246954 L 135.49444661775604 38.669188457565156 Q 139.86249999999998 40.68134390838188, 144.32187499999998 42.48207557016808 L 144.64180959605395 42.61126774548751 Q 148.78125 44.282807231954266, 153.240625 44.49013721534716 L 153.240625 44.49013721534716 Q 157.7 44.69746719874006, 161.9195594296496 43.23995928030752 L 162.15937499999998 43.15712288504477 Q 166.61874999999998 41.61677857134949, 170.8715494383525 39.5741374054795 L 171.38631792118682 39.32689148919027 Q 175.5375 37.333057657117905, 179.996875 36.1834226668923 L 180.08548295178593 36.16057937567204 Q 184.45625 35.03378767666669, 188.915625 35.731812555934184 L 188.915625 35.731812555934184 Q 193.375 36.42983743520168, 197.48434115135808 38.2970758839426 L 197.89945363861176 38.485698334161015 Q 202.29375 40.48241722872997, 206.75312499999998 42.3292256825263 L 207.0835769359537 42.466079261535164 Q 211.21249999999998 44.17603413632262, 215.67187499999997 44.469165424311086 L 215.67187499999997 44.469165424311086 Q 220.13124999999997 44.762296712299545, 224.3731340445861 43.35575090966521 L 224.590625 43.28363413626148 Q 229.04999999999998 41.80497156022343, 233.28188073221276 39.76446822214069 L 233.8038991664439 39.512764446681885 Q 237.96875 37.504581190523766, 242.428125 36.28279681287697 L 242.54582182018163 36.250550110996855 Q 246.8875 35.06101243523017, 251.34687499999998 35.67675906214292 L 251.34687499999998 35.67675906214292 Q 255.80624999999998 36.292505689055666, 259.91542853150554 38.13093466385813 L 260.30396646787074 38.304764881880324 Q 264.72499999999997 40.28271645583196, 269.18437499999993 42.17263828767686 L 269.52313043741947 42.31620578241218 Q 273.64374999999995 44.06256011952176, 278.103125 44.44102234965449 L 278.103125 44.44102234965449 Q 282.5625 44.81948457978721, 286.8284121985541 43.466246919769674 L 287.021875 43.4048764234857 Q 291.48125 41.9902682671842, 295.6935205584319 39.95460661330659 L 300.4 37.68010890688902" fill="transparent" stroke="#333" stroke-width="1.0" marker-end="url(#arrow)"/>
</g>
</svg>