<svg xmlns="http://www.w3.org/2000/svg" width="146.02090486990028" height="207.92453586386932" viewBox="-72.12100021759937 -115.33474572439026 146.02090486990028 207.92453586386932">
  <defs><marker id="arrow" viewBox="-10 -4 10 8" refX="0" refY="0" orient="auto" markerWidth="10" markerHeight="8"><path d="M -10 -4 L 0 0 L -10 4 Z" fill="rgba(0,0,0,1.0)" stroke="rgba(0,0,0,0.0)" stroke-width="1.0"/></marker></defs>
  <g transform="translate(-16.019397144458534 72.58979013947906) rotate(0.0) scale(1.0 1.0)">
<circle cx="0" cy="0" r="10" stroke="rgba(0,0,0,1.0)" fill="rgba(255,165,0,1.0)"/>
</g>
<g transform="translate(-52.12100021759937 52.47233736711319) rotate(0.0) scale(1.0 1.0)">
<circle cx="0" cy="0" r="10" stroke="rgba(0,0,0,1.0)" fill="rgba(255,165,0,1.0)"/>
</g>
<g transform="translate(-8.662019477198546 16.935073657435794) rotate(0.0) scale(1.0 1.0)">
<circle cx="0" cy="0" r="10" stroke="rgba(0,0,0,1.0)" fill="rgba(255,165,0,1.0)"/>
</g>
<g transform="translate(24.69684415530836 -42.92871500771101) rotate(0.0) scale(1.0 1.0)">
<circle cx="0" cy="0" r="10" stroke="rgba(0,0,0,1.0)" fill="rgba(255,165,0,1.0)"/>
</g>
<g transform="translate(53.899904652300904 -95.33474572439026) rotate(0.0) scale(1.0 1.0)">
<circle cx="0" cy="0" r="10" stroke="rgba(0,0,0,1.0)" fill="rgba(255,165,0,1.0)"/>
</g>
  <path d="M -16.019397144458534 72.58979013947906 L -52.12100021759937 52.47233736711319" fill="rgba(0,0,0,0.0)" stroke="rgba(0,0,0,1.0)" stroke-width="1.0"/>
  <path d="M -52.12100021759937 52.47233736711319 L -8.662019477198546 16.935073657435794" fill="rgba(0,0,0,0.0)" stroke="rgba(0,0,0,1.0)" stroke-width="1.0"/>
  <path d="M -8.662019477198546 16.935073657435794 L -16.019397144458534 72.58979013947906" fill="rgba(0,0,0,0.0)" stroke="rgba(0,0,0,1.0)" stroke-width="1.0"/>
  <path d="M -8.662019477198546 16.935073657435794 L 24.69684415530836 -42.92871500771101" fill="rgba(0,0,0,0.0)" stroke="rgba(0,0,0,1.0)" stroke-width="1.0"/>
  <path d="M 24.69684415530836 -42.92871500771101 L 53.899904652300904 -95.33474572439026" fill="rgba(0,0,0,0.0)" stroke="rgba(0,0,0,1.0)" stroke-width="1.0"/>
</svg>